/* XPM */
static char *_336_c2abe92927dc0c18bb4974a5c77ac7a7d22f3c4c16bbf3dea862023de53aef87[] = {
/* columns rows colors chars-per-pixel */
"64 64 228 2 ",
"   c #391800",
".  c #470D00",
"X  c #441401",
"o  c #491401",
"O  c #461C03",
"+  c #4B1C03",
"@  c #481809",
"#  c #521503",
"$  c #531C02",
"%  c #5D1E01",
"&  c #531E09",
"*  c #4C2304",
"=  c #4F2906",
"-  c #4E200B",
";  c #542204",
":  c #5B2304",
">  c #572907",
",  c #5C2904",
"<  c #54240B",
"1  c #5B250B",
"2  c #552A0C",
"3  c #5D2B0C",
"4  c #552513",
"5  c #5B2B12",
"6  c #5D3214",
"7  c #5E351B",
"8  c #622405",
"9  c #6C2706",
"0  c #642A06",
"q  c #6E2A06",
"w  c #63260A",
"e  c #642B0B",
"r  c #6B2D0C",
"t  c #722B07",
"y  c #742D0A",
"u  c #60300F",
"i  c #6E310D",
"p  c #7F3206",
"a  c #72320E",
"s  c #7B340D",
"d  c #7D380E",
"f  c #652E12",
"g  c #6C2D11",
"h  c #642E19",
"j  c #712C13",
"k  c #643214",
"l  c #6B3213",
"z  c #6C3815",
"x  c #643519",
"c  c #6A341B",
"v  c #6C3A1B",
"b  c #733413",
"n  c #7B3513",
"m  c #743A15",
"M  c #7B3A15",
"N  c #733619",
"B  c #743B1A",
"V  c #7C3D1B",
"C  c #683925",
"Z  c #6D3C24",
"A  c #743E23",
"S  c #7C3E21",
"D  c #6D401C",
"F  c #75411C",
"G  c #7C411D",
"H  c #6A452A",
"J  c #754223",
"K  c #7C4423",
"L  c #7C4924",
"P  c #744328",
"I  c #7D472A",
"U  c #754A28",
"Y  c #7D492D",
"T  c #7F4C30",
"R  c #7F5034",
"E  c #8A340B",
"W  c #823716",
"Q  c #823C14",
"!  c #823E1B",
"~  c #883E1A",
"^  c #833E22",
"/  c #883C22",
"(  c #83421D",
")  c #8B4519",
"_  c #8B441D",
"`  c #8C4A1D",
"'  c #90471A",
"]  c #91481A",
"[  c #B64A09",
"{  c #AD5008",
"}  c #844422",
"|  c #8B4622",
" . c #854A24",
".. c #8C4A25",
"X. c #844629",
"o. c #8A4729",
"O. c #854C2B",
"+. c #8C4C2A",
"@. c #914724",
"#. c #934C25",
"$. c #9B4D24",
"%. c #924D2A",
"&. c #9A4E2C",
"*. c #895126",
"=. c #84512C",
"-. c #8D512C",
";. c #945127",
":. c #9B5325",
">. c #94522C",
",. c #9A542D",
"<. c #92582F",
"1. c #9C592D",
"2. c #844C31",
"3. c #8D4E31",
"4. c #924E32",
"5. c #865131",
"6. c #8D5333",
"7. c #8F5A34",
"8. c #845239",
"9. c #8F563A",
"0. c #875E3B",
"q. c #8D5B3B",
"w. c #945432",
"e. c #9B5532",
"r. c #955A36",
"t. c #9C5A34",
"y. c #94563A",
"u. c #9E5739",
"i. c #945B3B",
"p. c #9C5C3A",
"a. c #AD5520",
"s. c #A1562B",
"d. c #A25A2D",
"f. c #BE5D26",
"g. c #A35732",
"h. c #AC5732",
"j. c #A35C34",
"k. c #AA5E35",
"l. c #A35D3A",
"z. c #AA5E3A",
"x. c #B15F3A",
"c. c #8A683E",
"v. c #9C613E",
"b. c #A56136",
"n. c #AB6236",
"m. c #AB6C36",
"M. c #A4623C",
"N. c #AB643C",
"B. c #A5683F",
"V. c #AC693D",
"C. c #B56736",
"Z. c #B1653D",
"A. c #B36A3D",
"S. c #BB6C3C",
"D. c #BC723E",
"F. c #D27A3F",
"G. c #945C41",
"H. c #9A5D41",
"J. c #A35F40",
"K. c #846042",
"L. c #966343",
"P. c #9D6443",
"I. c #9C6944",
"U. c #9D6549",
"Y. c #9C6B4C",
"T. c #A56442",
"R. c #AC6542",
"E. c #A56A44",
"W. c #AD6A44",
"Q. c #A36649",
"!. c #AD6748",
"~. c #A46C4B",
"^. c #AC6C4A",
"/. c #B26642",
"(. c #B36B43",
"). c #B96E45",
"_. c #B06748",
"`. c #B46D49",
"'. c #B96E4A",
"]. c #A77248",
"[. c #AD714D",
"{. c #B57145",
"}. c #BB7245",
"|. c #BB7947",
" X c #B4724B",
".X c #BC734B",
"XX c #BE7A4D",
"oX c #A56F52",
"OX c #B06F51",
"+X c #A57153",
"@X c #A77A53",
"#X c #AF7A5C",
"$X c #B57552",
"%X c #BC7551",
"&X c #B57954",
"*X c #BC7A53",
"=X c #BA7759",
"-X c #B37B59",
";X c #BD7D5A",
":X c #C27544",
">X c #C97643",
",X c #C47946",
"<X c #C97A46",
"1X c #C1764C",
"2X c #C47A4C",
"3X c #CA7C4C",
"4X c #D07F48",
"5X c #C27651",
"6X c #C37B52",
"7X c #CA7D53",
"8X c #C17C5A",
"9X c #C87D59",
"0X c #D27F57",
"qX c #BB8259",
"wX c #C6814E",
"eX c #CD824C",
"rX c #D3854D",
"tX c #C68156",
"yX c #CC8254",
"uX c #CB855A",
"iX c #D18351",
"pX c #D68857",
"aX c #DA8D5D",
"sX c #DE935A",
"dX c #E58750",
"fX c #ED9256",
"gX c #CF8862",
"hX c #E09764",
/* pixels */
").n.^.8 p.l.M.e.t.#...=.m >.W./.).h.x./ J.8 l +.+.i  XR.N.^.M m -.4.9.l >.e...%.| G %.>.g.s.&.#.%.>.,.,.'.&.( ,.,.t...;.(.).' %X",
"$.M b ,.e.b.(.W.( j.>.K e -.s #.N.x.n.N.M.9 l.>.r.O.w S ( +.o...e.e.f >.,.,.M t.l.w.t.,.n.,..._ | ( s #.N.&.>.%.%.%.r.{.#.&.>.t ",
">.M G (.(.2X.X{.6X(.z.w.F z M.~ (.d.k.V.j.t (.(.T.: 2.O.o.w.R.%X`._.r ;X8X.X.X(.N.N.s s }.(.>.( +.a o.;.g.e.#.>.+.} } -.) Z.S.(.",
"w.G } >.'.A.{..X' V._...F * p.p.g._ #.M >.l ;Xp., O.6.3.X.%.%X(.(.p.: } .X.X.X.X.X(.d.1.}.) j.(.V._ } | d.Z.n.o.} ..} +.w.(.}.] ",
"K >.r.w.,.@.6X7X(.t.*Xp.z 3  .r.R.B.,.T.+.> 3 : y.o.^ X.} +.T.V.b l z l (.`.A.k.(.(.(.XX2XhX3X,X XA.} %.).2X{.| a O.V V e.j.n.' ",
"w.....,.%.R.}.A.Z.B.y b.7.; q.W.n.%Xk.(.M.; > i.E.,...K +.4.e.M., P.G S R.R.(.`.#.@.$.] |.}.D..X'.Z.%.$.A.eXC.}.b.1.} %...k.' n.",
"`.|.1.b.~ %.#.e.>.M t +. .$ ^.n.S.).(.E. .f } >.>.w.e.b 4.w.~.$ E.} V i.T.Q ,.!.} ( _ #.n.2X}.9 (.(.N.x.S.<XsXrX2X.XR...] Q 6X3X",
"8X{.6X.X{.t.N r B ( b.1.-.3 l N.1X6X{.G < OX&.5X*XM.Q >.4.X.1 V R.p.} Q.R.(.n  ...} >.N.l.s u.-.l.d.k.Z.N.}.}.D.2X9X1Xj.' s.}.,X",
"'.|..Xl.R.V.i.6.f B./.l.w.h 3  Xb.M. X, K b 3X1X| ;X%Xe.e 6.r.u.V _.j ^.j g T.w.} } +. .e.%.X.^ +.,.&.l.j.e.| N._ 2XD.V.Z.A.3XF.",
"T.{.b. XR.E.r.x O..X6X`.(.b 1 r b.,.{.u z n (  X5XA.6XI.+ p.t.4.y.%.u.o.R.z.n.e.} ( ..+.#.%.@.} ( %.@.e.l.t.n l.y.! (.j.g.6Xd.s.",
"{..X(.`.T.J 6 , y._ n..X'.(.c & [. XB.- k %.W.%X7X6X*Xc P.| z.%.+.o.o.G p.l.j...G ..+.%.`.(.l.l.! #.&.,.| R.`.M ~ ! M.-.1.t.`.2X",
"z.j.W.E.$ & B i.} l.%Xz.7X(.^.e 3 I.< K.3 (.8 e.} K 1 i.| 2Xn.,.} o.V O.4.,.s.s.l.) ( >./.'.).'.t.#.q _ %.n %.r.-.} -.-.( d B.s ",
"T.v.v.; J v.r.+.7.`.j.V.7X2X(.B.F l x U r .X|.&X$ p.*XT.(.A.C.k.k.s.V o.r j.uXpX6X(.N.W.(.'.A.V.}.1.( V >.} $Xp.;.t.o.b +...j.n ",
"1 e 3 O v.,.,.w.A o.l.'.:X:X,X1.T.N.z , `.).|. X% %.(.R.S.1X3X3X>X/.n.M ..d 7XZ.y A.m.}.t ).W N.g.(.;.( V.+.M.(..XA.,.#.+...t.g.",
"r.y.X.S T.e.w.B X. .(..X.X XP.O.y.P.T 2 w (.{.( y.3.o.e./.1X:X,XS.).A.,.d }.n.aX1XrXrXS.1XN.(.(.Z.(.` #.g.,.R.1X.X).j.>.( w.>.N.",
"O.e r e.e.R.t.-.w.M.M.Q.y.o + & & 2 5 2 Y o.T.a w.....,.~ k.Z.Z..X Xg.n.N.,X}.aXiX3Xs.}.}.,X>XF.S.m.%. .e.z.'.1X6X1X1X1.>.j.r.` ",
"G t.R.R.V.r l.V.%.r.+.O.$ oXW.|.w.$XO.7 q.^.6.( } ..( V.Z.(.N.o.X.B M.Z.Z.Z.7XS.3XA.R.v.B.wXD.}.{.E.6.} w.@.~ $.yX5X$.n.u.( i.} ",
"(.(.n.b.%.p.`..XZ.! l , %.(..Xp ;.yX,.J 2 `.(.%.( } B.b.,./.| n O.( p. .%.Z.Z.Z.}.8X& < $ {.qX=X+ - O O S ..(.(.1X.X.X}.b.r.w.w.",
"+.{.Z.#.b p.`.%X) w.+.*...g.>.!.%X.X2X(.& ~.6X6X Xj.%.n ..+.l.u.o.o.w.o.e.,././.V.f J r.r.# o O X.`.OXy.: 1 [.) .X X&X^.y.Y A 5 ",
"m A.s.>.o.s (..X(.e...( ..}.*X(.2X).:X`.9.; .X7X(.6Xn.,.n./.#.,.&.%.} G O.o.Q.T.P.P r.| w.y.Z c ^./.| g.%.K + < X < + A + O 6 J ",
"v.(.k.n _ $.y .X`.t.( ( ;.%Xn }.).,X:X5Xr.> W.#.n.N.7X6X'.2X2X.X1XN.>.X.> X f I + v.v.b.r.} S o.%.'.Z.A.,.e.r.K 9.e &X X$Xr.`.A ",
"b.j.d.` M.(.N.%.j (...>.+.p.W.j.6X5X.X%X$X+ I.W. X{.2X(.k.1X1XXX X^.J ; 8.7.1 2.< W...M %.G } p.t.e.~ `.e.%.m 0 >.m.}.' @..X.Xk.",
"e.#.(.N.|.Z./.z.;X(..X .w.w.v.r.%.n R./ &XU 2 v o & ].{.|.&X&X .h 2 $ i.~.8 +.y.>.B.m.(.( 7...+...b +.l.+.-.G O.V w.;.{..X{.{.`.",
"..M.`.1X2XA.W 5X_.}.(.(.&.p.$ l  X&.Z.%X-XT X x #XY.2 . +   O R N K e >.>...%.e.V.(.R..X|.>.E. .%.o.l l V } r *.w.w.R.N..X}.(.}.",
"%.l._ d.A.}.t.*X*X{.}.W.>.<.b.u.R.[.@Xi.3 & oX%.#.g.t.p.G.1 [.8X.X`.l.B V r.>.N.`.tXn yX2Xw.# j.| p.K  .o.,.e.+.b | t.k._.N.b.$.",
"G a W.A..XA. X%.p.R.B.E.r.F p.l.^.: * + z 6.l..XZ.z.! l X.w.{.}.S.).n.w.o.b o.(.,.,./.1X|.6X*X(.V.( 0 r.r.j.j.#.(.;.j.%.,.n j.R.",
"B  .W.(.(.j.} i.B l < 2 ; + < 6 o 5. .P.>.XX).).V.,.y.X.} B.R.n.).Z.(.w.q w.| l.{.A.(.}.2X1X~ .XXXb m +.n V.1X0X|..X`.#.+.` >.j.",
"v.+.0 >.v.T.0 F 0 M &X~.[.v.w.0  X%Xb +.j.(.).(. X..S >.| %.@.l.N.z.z.p.O.-.e.t.N.s.}.}.k..X5X.X( w.( Q t.;XXX6XuX1X{.>.`.%.( -.",
"i E.`.p.i r V b.B.(.2X`..XV.>.g. XR.l 3.t.j.(.5Xn >.} r.&.%.l.M.V./.z.l.>.,.%.l.j.N..X) %XyX2X).}.`.e.e.b.,.V.2X<X}.6X{.N.`.%.} ",
"l ( ,.R._.l...l.j.1X%X%X'.`.z.e.N.V.K r R.#.V.}.Z.W.%.`.u.n V +.( p.u.u.t.V.R.s k 3.l + S [. X~.O.~.U Y E.}.{.1XeX] }.W.V.XXr.+.",
"..V p.n '.R.R.y R.{.XXR.@.'.(.W.W.(.w.w.p.` j.n.(.).z...e...M } X.K N p./..X).(.].L v 0.L.3 o X + + H < O < K p.{.&XB T.o.; r.O.",
"p., T.r.R.} B.t.R.{.$X{.T...W.`.!.T.w.o.%.e.g.n.Z.V.e.} p. X+.+.=.B +.N.(.&.).`.,.W.O.>.l.| $X$Xr.i.y.O.H.I w > G.& + w e 5 < 3 ",
"r.-.p.A ; f f & 5 5 & @ * 5 < 5 = * > + ; 6.>.v.z.%.R./  X Xl.>.y.B +.j.g.n (._.N.f F %.(..X'.'.M.b M n g.R./.(.^.E.*.R.R.^.T.p.",
"t.>.( y.B p.P.OXo.H.H.2.$ ~.z F  .0.].Q.; > u I Q.n +.r.j.j.t.;.V X.+.e.j.,.l.#.M 6.G ( A.`.Z.(.j.>.o...`.'.(.%Xq V.l.k.V.j.V.t.",
"M.t.%.! +.>.b >.`.J.N 4.p.+.A.N.n.(.z.J.(.R.p.& ; B p.~ !.}.(.t.p.a ,.g.j.j.,.;.>.r -.V.d j.j.N.V._  ...%.n.z.)._ k.'.Z.m.(.A.V.",
"^.;.>.o...+.| p.T.T.4.w.%.#.j.>.&./.5X.Xj.l.z.%.-.3 ; Y h ^.W.j.+.+.E.Z.A.(.B.p. .l  .+.1.d V.n.l.u.+.` _ N.o.R.1.(./.N.t.1.>.+.",
"j.b.r.m G G B ^ l.e.;.} } n O.+.w.n R..X`.t.#.n 7.O.e V H.r -.y.$ M.(.Z.N.(.M.j.w.w +.| t.N.}.N./.z.e.( +.(.(.V.{.(.j.M.V r p.M ",
"2XZ.M.Q 1.a +.w.j.R.p.l.w.} } ( o.n.`. XR.(._ } O.r.M.N.g.w.& k Q.R.).(.A.(.j.w., v.,.} ( w...w.e.>.,.j.{.(.t ,.`.N.V.j.R.w l.|.",
">X:X3X6X).>...%.;.l.R.l.o.+... .V +.e.@.(.z.M.M l P.` z.j.M -.+ : ! (.(.z.R._.r. .H.M V S b l } K m %._.(.W.n.R.N.Z.(.n.( : $X%.",
"D.2X3X:X2X`.}  .*X6Xn.t._ t...b ! ( e.(.N.n.>.! %  XW.N.z.d.r.P J $X.X,.k.`.( q p.+.o.! p.+.+.N N r.V.(.!.`.V..XV.(.,.*.0 , z ..",
":.|.2X:XS.R.t.M ) yXyX|.|.b.(.W.V G %.:.(.Q _ +.w ^.%.m.Z.Z.r.3 6.} n  XM.b e B.)..XZ.V._ R.+.} n %.j.(.&.R.n.j.'.V.,.%.( ^ +.n.",
"(.V.:.%. XV.(..X).1XfXsXaX}.A.}.,.} ( ..g.A.`. X7.V b.v.w.| r $ v.%.d.r.q.F o.r./.(..X}.2Xj.| ! } o.%.b.r.^.j.l.p.V N ^ } } | z.",
"( t.1.} y %.R.V..X|.}.}.wXXX}.).).| n #.D.|.,XA.!.w P.P.# e 3.> E.n.d.+.5.3 +.+.N.g.).(.Z.n.,.%.o.4.#.>.%.%.,.( y.V p.,.t.F S T.",
"..-.} O.y.r.%.q g.(.V.,.{.9 V (.(.N.V.`.}.,X3XC.M.V c z r.l.r.P f t.e.>.O.K o.} N.V.`.#.V.`.>.%.t.,.V.`.l.R.e.t.w p.,.g.t.} N y.",
"j.p.| b } %. .t u.t.b r !.b.j W N.g.N.A.|.3XiXwX^.&X3.o.e.&.;.m c b.%X;.N 6.V M N._ V.l.( e.| z.%XZ.tXb.(.`.l.L w l.Z.z.t.>.%.e.",
"(.V.j.b.>.} } p.M M.p.w.M b o.w.>.%.g.(.}.:X2X1.$ ^...t.N.XX7X}.; i.8XT.: v.%.p.,.w.t.g.e.! } (.Z.).n.N.(.V ^.O l R.z.`.W.(.g.s.",
"}.{.|.`.,.#.V y +.r a u.| ;.} ..6.$ f y.^.=XR.e.w Q.1.v.{.(.C.uXM : w $ W.A.%XV.N.%.| o.! X.+.>.Z.).N.y M.S Q.+ r.p./.Z..XN.'./.",
") |.tX.XXXl.o.3.( w.V.`.,.{.+.+.! O.G.~., c V r.P.: *.>.V. Xd.yX(.l.B K n.`.,X2X}.'.l.%.o.%...,.' V.k..XI.: o v.b B.(./.'./.z.s ",
"t 2XQ |.#.(.t.n t.W.Z.0X3X6X`.W.} } ,.,.`.}.Z.% v.Q...B.b.*X3XuX3XA.t.F E.*X.X,Xp k. X;.( 9 p.p.R.M./ P.< X.Q.-.r.e.r.(.(./.@.n.",
".Xd.V.(.V..Xj.+.V d.A.k.2X).R.e.>.! r.M.>.(.`.l.8 O.>.>.t.XX(.) eXC.v.r.N w.8XgX6X.X X`.b.G -.r.P.O.oXo U r.l.e.r.( B j.(.%X/.l.",
"{.D.S.N. X$Xw.w.} l.`.}.<XiXs.1XR.b o.i.t./.|.V.W. X(..X*X{.(. XqXoX+ x 6.$X XXXm.j.&X^.7.U.Y.  + 2.X P y.j.;.d.1.% r.n.n.l.^.$ ",
"*X*X{.&Xo o + < J w.V.2X3X<XeXZ.N.M...%.%.).1X:X7XW.}.^.6.P.q.6 X k c.D - C +X2.X X 4 + C O O U.Q.O.J l W.&.`.(.V.T.~ +.-.V 8 [.",
"< > < 1 f ~.p.y.g f $ r.m qXG.2.l U.2.z -.i.].-XE.q.& O 5 2 4 H r.=Xb e.P.8.o $ qX#XZ ~.#XI.L %Xe.q 0 _._.&. X9 R. XN.6.9.N w.M.",
"B.N L.S !.Z.j.d e.^.5.=.S o 5 I A + X + X 2 q.+ + k +Xv.Q.l J r  X5X`.j.} M j.(.} ^.T.b.}.n.+.+.>.( t.`./.@...| `..X#.+.S M e.e.",
",.-.c X._.^ n | M.).)..X1.}.v.V.(.d.R.l i.Y.B 7.&Xr n.W.T.+.^.{.`..X'.p.I y.>.b..Xr  X{..X).z.0  .` t.z._.%.o...M.{./.| %.| e.R.",
"/.e.*.t.o. X>.( W.{.(.j.%.`.:.V.k.Z._.,.<.m  X(.{.t.T.>.O.r.b R./.`.j.R.....t.n.,.j.`.}.}.|.`.w.F t.&.s._.e.( +.N.(..Xt.| ~ ( l.",
"`.e.( w.R.p.,.| ,.) `.(.(.V./.Z.z.'./.!.8 w.^. Xp.3...o...G p.M.g.,.(._.M i w.M.Z.W.d.}.).}.,.;.G e.V.#.(.%.M ..) ;.`.S.,X` | l.",
"`.n.#.} u.w.M >.W.%._ V.(.(._.z.%.W.R.! -.6.p.A ^.} } o.+.+.>...d.V.(.l.z.j...M  .M.t. X`.n ).(.W.( ,.:.z.,.(.(.{.wXE fX4X3X#.%.",
"/.N.(.u.M ( t.l.*XV..X(.(.(.R.( b p.g X.X.S `..X$Xg.| z.t...-.+.u.W._.R.g.M._ t.!.a %.W.(.j.(.C.}.b.>.Q s.).).}.( C.dX[ fXC.>.e.",
"Z.V.V.%.~ N.n.,.W.Q #.n.z.N.B.^.0 e.%Xe e i.l..X`.(.(.e.!.T./ o.} M >.t.M.M _ V.R.%.r.,.(.}.Z.d.l.n F -.R.x.g.`.: eX{ F.$.}.#.g.",
"R.`.%.| .X%X6X( j.(.V.).g.(.M.B $ uX!.8 2.T.W.Z.(.g.t.` w.} w.N M G } y } >.`.:.{.N.`.R.j.t.l.B.p.O.0 M R.5X.XC.a.dXpX:X3X2X1.>.",
"j } j l./.R.'.~ /.Z.Z.W e.R.} K 3 ( ) } w r.n.W.(./.N.e.;.l.T.T.! -.S K r.M.(.j.Z.Z.V.z.j.e.} -.f 3.L 3.b `.R.Z.f.E r q.l F 5.c.",
" .+.W.z.Z.@.(.`.W '.Z.R.E.w.V 2.k R. X>.%.w.b.M.l.(...#.p.^.t.%.t.w.+.J r.M.V.r (./.Z.M.a t.+.>.-.6.w w.V N E. XM. X2.+ x 5 2 + ",
"G ( b.g.d.| V.(.l.(.t.t.V N O.I k b {. Xl.M >.-.b.M ( o.9  Xb.V.B.w.6.6.w. .n.,./.Z.V.N.B.,.V...p.-.N N r.T.`.6.+ C U -.tXM. X^."
};
