/* XPM */
static char *_256_4cf4612020cc537f599b06dae2696af07c104d245e5022babacf6ff6a8d5b10b[] = {
/* columns rows colors chars-per-pixel */
"64 64 256 2 ",
"   c #0D0201",
".  c #0A0407",
"X  c #130102",
"o  c #1B0102",
"O  c #1C0A03",
"+  c #13020A",
"@  c #1C020B",
"#  c #170A08",
"$  c #19120D",
"%  c #190712",
"&  c #230201",
"*  c #2C0201",
"=  c #250B02",
"-  c #24010D",
";  c #2A030C",
":  c #280B08",
">  c #370604",
",  c #271408",
"<  c #381608",
"1  c #260211",
"2  c #2B0212",
"3  c #2B0A16",
"4  c #340B16",
"5  c #2A1717",
"6  c #361717",
"7  c #32281C",
"8  c #1E1B24",
"9  c #2E1725",
"0  c #391922",
"q  c #362825",
"w  c #3C342C",
"e  c #3B3430",
"r  c #460A07",
"t  c #520B09",
"y  c #441603",
"u  c #4C1C03",
"i  c #551A03",
"p  c #450A13",
"a  c #451817",
"s  c #571514",
"d  c #6C120A",
"f  c #651915",
"g  c #49220D",
"h  c #5B2304",
"j  c #592709",
"k  c #452518",
"l  c #552816",
"z  c #573617",
"x  c #682907",
"c  c #632B0D",
"v  c #742C07",
"b  c #6C330D",
"n  c #77330D",
"m  c #682A15",
"M  c #762815",
"N  c #663416",
"B  c #6B3212",
"V  c #733413",
"C  c #763616",
"Z  c #7B3A14",
"A  c #743C1A",
"S  c #7C3D1B",
"D  c #591A21",
"F  c #721B26",
"G  c #452929",
"H  c #483A2A",
"J  c #56372C",
"K  c #443B32",
"L  c #493A37",
"P  c #6F3526",
"I  c #793C23",
"U  c #70450D",
"Y  c #754219",
"T  c #7D411D",
"R  c #4D452A",
"E  c #474134",
"W  c #4C433B",
"Q  c #544439",
"!  c #774527",
"~  c #7D4323",
"^  c #60552A",
"/  c #704E35",
"(  c #4B3B40",
")  c #544742",
"_  c #675A51",
"`  c #736949",
"'  c #726B64",
"]  c #8C1410",
"[  c #AA1D11",
"{  c #902A10",
"}  c #98241B",
"|  c #813712",
" . c #823C14",
".. c #823D1A",
"X. c #AB2F11",
"o. c #8B1B28",
"O. c #971C25",
"+. c #8E1B35",
"@. c #AB1920",
"#. c #8B2529",
"$. c #962327",
"%. c #8B342D",
"&. c #983935",
"*. c #B3302D",
"=. c #C53917",
"-. c #83421D",
";. c #8B441D",
":. c #8A491F",
">. c #91481A",
",. c #92551C",
"<. c #B14B0B",
"1. c #8B681B",
"2. c #844422",
"3. c #8B4623",
"4. c #844B24",
"5. c #8C4A24",
"6. c #864629",
"7. c #854C2B",
"8. c #8C4D2A",
"9. c #934C25",
"0. c #934D2A",
"q. c #984B29",
"w. c #8A5227",
"e. c #8E512C",
"r. c #975528",
"t. c #94522C",
"y. c #9A532D",
"u. c #894C32",
"i. c #944E34",
"p. c #8D5334",
"a. c #8B5737",
"s. c #955432",
"d. c #9B5532",
"f. c #955B36",
"g. c #9C5A34",
"h. c #96553A",
"j. c #955A3A",
"k. c #9C5C3A",
"l. c #A3582B",
"z. c #A7433B",
"x. c #A75934",
"c. c #A35C34",
"v. c #A35D3A",
"b. c #AA5E3A",
"n. c #B35533",
"m. c #966635",
"M. c #A56036",
"N. c #A4623B",
"B. c #AA653A",
"V. c #AB643C",
"C. c #B46E31",
"Z. c #B1653D",
"A. c #B26A3E",
"S. c #B96939",
"D. c #CC5015",
"F. c #D26D14",
"G. c #EA7109",
"H. c #E87815",
"J. c #D9512F",
"K. c #C94538",
"L. c #CA563D",
"P. c #ED4F34",
"I. c #D26E35",
"U. c #EA722F",
"Y. c #8F5C43",
"T. c #AE5448",
"R. c #996545",
"E. c #9D6444",
"W. c #827859",
"Q. c #A56441",
"!. c #AC6542",
"~. c #A56946",
"^. c #AD6A44",
"/. c #AC6C4A",
"(. c #B26643",
"). c #B36B43",
"_. c #B96E45",
"`. c #B06748",
"'. c #B46D49",
"]. c #B96E4A",
"[. c #AC704D",
"{. c #B57145",
"}. c #BB7245",
"|. c #B4724B",
" X c #BC734B",
".X c #BE794B",
"XX c #BB7451",
"oX c #B87853",
"OX c #84776E",
"+X c #D1534B",
"@X c #D86B4C",
"#X c #C57848",
"$X c #C47B4C",
"%X c #C47853",
"&X c #C37C53",
"*X c #BB863B",
"=X c #DE8E1F",
"-X c #F0910F",
";X c #EB8917",
":X c #FC851C",
">X c #F78B19",
",X c #F69718",
"<X c #F7B017",
"1X c #D39A2E",
"2X c #E78928",
"3X c #F78A25",
"4X c #E89626",
"5X c #F79426",
"6X c #EE8E38",
"7X c #F68A35",
"8X c #E89638",
"9X c #DAA635",
"0X c #F0B12F",
"qX c #F6A735",
"wX c #F9C417",
"eX c #FAE317",
"rX c #F3CD2E",
"tX c #F9D533",
"yX c #A99A5E",
"uX c #B99054",
"iX c #978A75",
"pX c #AA9471",
"aX c #B2A879",
"sX c #D38E4D",
"dX c #C98456",
"fX c #EF8D4C",
"gX c #EC9A42",
"hX c #D9AE4D",
"jX c #F0B04D",
"kX c #E8A957",
"lX c #D49968",
"zX c #ECB467",
"xX c #F2CB4D",
"cX c #E4D55F",
"vX c #F7CC6F",
"bX c #F8EF71",
"nX c #F8EA77",
"mX c #959183",
"MX c #A99B87",
"NX c #B5A999",
"BX c #AFAEAB",
"VX c #C5B68A",
"CX c #FBBE8E",
"ZX c #F4D089",
"AX c #F5F193",
"SX c #D2C9AF",
"DX c #E0D3A8",
"FX c #F5EEAC",
"GX c #FCE8B6",
"HX c #FAF6B8",
"JX c #D9D7CF",
"KX c #F5ECCA",
"LX c #FDF7C8",
"PX c #FAF8D7",
"IX c #FAF8E7",
"UX c #F3F4EE",
/* pixels */
"_.B.^.x k.v.v.d.k.9.4.w.C s.!.(._.n.b.3.v.x B 8.7.b '.!.V./.S A 8.i.f.B e.d.5.0.3.T e.t.l.l.y.q.9.t.t.y.].y.-.y.y.g.5.9.(.{.9..X",
"q.Z n t.d.M.).^.-.c.t.~ c e.n 9.Z.b.M.V.x.x b.y.f.7.c I ..5.3.0.d.i.m f.y.y. .g.v.s.g.r.b.l.5.-.5.-.n q.V.q.t.9.0.0.g.|.9.y.9.v ",
"y.Z T )._.&X X{.&X_.N.s.Y N V.-.).x.M.A.c.v ).(.Q.h 7.7.7.s.V.XX_.`.c oX%X X X^.B.V.n n _.(.r.-.0.b 3.t.x.d.9.0.8.2.2.e.-.Z._.).",
"s.T 2.t.{.A.{.{.>.V.(.5.Y h k.k.g.>.9.Z t.B oXE.h 7.s.u.6.t.XX_.).k.h :.XX X X X X_.x.y.}.-.b.A.V.;.2.3.l.Z.b.8.2.3.2.8.y.A.}.>.",
"I s.f.t.y.9.&XdX_.g.oXM.A j 4.m.!.V.t.N.4.j j h h.8...6.6.8.!.Q.V V N V ).{.(.V._.A.). XdXlX$X.X{.(.-.0._.#X'.3.V 7.S T d.c.M.>.",
"s.5.5.t.0.!.}.A.A.N.v k.p.g s.^.M.%Xb.(.N.j j j.B.t.5.~ 8.i.d.E.j E.T ..Q.!._.).q.3.r.>.I.#XS. X XS.9.q.A.sXS._.M.y.4.5.5.M.>.Z.",
"'. Xg.M...0.9.y.s.Z v e.4.i ~.B.).'.).^.4.b ~ t.f.f.t.V 0.s./.i ~.2.I Y.!. .y.^.;.-.-.r.M..X}.v ).A.V.Z.S.#XsXsX#X X!.5.>.| $X$X",
"&X{.dX{._.c.C m A T N.d.w.c B B.#XdXa.< o , k Y.oXQ. .t.i.~ j S Q.k...Q.~./.n 5.5.2.t.Q.b.n d.t.k.c.b.Z.V._.#X}.$X&X#Xx.;.l.#X#X",
" X X}.v.!.^.j.a.b V.!.N.d.m c oX, hXqXG.U.:.* & o = [.t.j u.h.k...'.m /.B m !.d.2.2.5.3.s.i.2.I 8.r.q.v.v.y.3.V.3.$XS.(.A.Z.#X#X",
"N.{.N.'.(.Q.f.B 7.XX%X_.^.x 4 FXG.<XY 6 o X X @ > z.z.* , Q.l.s.f.8.k.~ l Y.M.g.2.~ 5.8.9.9.9.2.-.0.q.x.v.v.n v.k...^.c.c.$Xl.l.",
"{. X).'.N.! z h p.;.b.oX_.7 AX1X0Xr o   ; X t.ZXX.t X X X o ! k GXhXuXAXvXX.i.* T 5.8.9.{.(.c.b...0.q.y.3.V.).S ..T N.e.r.g.}.$X",
"V.c.~.~.h u A f.~ N. XV.k FXnX9Xf @ 2 W o xX<Xr + = 2 2 2 - 2 - + X & * ;   r &.f * A r.(.`.R.E.s.9.v ..0.C 0.j.0.2.e.t.-.Z B.Z ",
"Q.N.f.j ! f.d.8.p.[.N.! PXFXxXD +   9 X nXxX; X 4 Q MX:   X 0 3 2 3 1 o M sX*.r   X . X < jXgXF.I.* 5  .r.3.|.k.t.c.5.V 8.5.M.n ",
"j c j y R.r.d.h.Y p.j.UXHXrXr   L E X bXrX&   X H ) W L E R H w 5 +   gXG.> o - ; o $ ZX,XwXU * @X+XT.* Q 5.V.^. XA.y.5.0.5.d.c.",
"h.j.7.~ Q.y.s.A 2.4.H xXbX=   X q q IXFX> o K ` VXH X . # . , ` aX# 0XrX; o ; # X BXxXtXjXs } } T.z.#.+.T.l /. X X(.x.r.2.t.y.N.",
"7.c x d.d.^.g.0.s.Y.IXrX<Xt : R pX$ AX1.X # K E E E L H ` pX^ aX+ nX0X2   ; W w BXhXHX1XI.O.& X + @ X & #.&.a.#X%X#X Xg.t.c.k.:.",
"T g.V.!.V.v v.!.9.X 0X<XO . e E $ PX<Xt : ` VXyX, . + 7 L W R 7 FXbXX   4 E E q cXGX9XT.$.X X     X - o X #.& d.&X%Xq.M.l.-.j.~ ",
"{.A.N.M.t.j.|. XV.UXvX<X6 $ E W # H.=   L , W W w R . _ aXH # $ HX*X: 2 K E   LXAXrXv.$.X @ 1 2 1 - X     &.} N #X#X%X XM.g.s.s.",
"w.{.Z.9.V v.'.%XB j | kX* :     IX;Xp $ K w e ) W ( H H Q E # PXrX6 : NXiXo UXFXwXo o.o X     X X @ ; ; - X O.  ].|.oX[.h.! I j ",
"C ).l.0.3.n ^.}.< GXAXjXX o q # vXdXo 6 ' q # hXkX` % 5 E Q   ;XB o a E E   cXAXhX[ %.X 1 1 @ 4 @     X @   $.f y u u P u u z ! ",
"k._.x.Z 3.9.v XXKXsXF.gXLXIXBX% X X + X # UXCX8XGX,.I.X $ w IX;X4 - H E q IXwX<X* @.  1 1 1 4 2 - - 1 - X   T.&.J c oX XoXj./.T ",
"N.M.l.:.V.).V.8.R xXrXt 3X:X>X>X2XZXLXLXQ 4X,XjX-X,X> o 3 o dXfX* X . 7   ZXrX0Xn.T.@ - 1 4 4 1 ; 1 2 2 X   f O.< B.}.>.0.]. Xv.",
"s.9._.N. XZ.(.b.~.o + X o < 1X0X;X>X3X<.IXH.> r > :XqXo + X #X*   Q R R q 0X{ o { o   X @ @ 2 1 1   @ 1 - o s #.= y.0.{. X{.{._.",
"5.M.'.#X$XA.| $XS._.Y.SXX X   + . # o y SX3XQ 1X> I.D.> ZXLXPXmX#   X   : a i & O.X - 2 - X   X @ - 1 2 - X %.#.< f.^.V. X{._.{.",
"t.b.:.l.A.{.c.oX%X{.! PX. UXUX' #   X X o ! LX5XX U.fXf 5X>X3X>X3X8XvXiXzXGXcXP._.@ o @ - 2 2 2 1 X     @ X T.+.g -.c.v.(.B.c.0.",
"S b ^.(.|.A.|.e.k.y UXLXDX+ IXUXIXIXUX.   X GXI.. I.o . . X , sX0X4X6XIX<.vXqXJ.$.d   .   @ @ - - 1 2 2 3 . $.D Q.9.c.0.y. .c.V.",
"A 4.^.(.{.M.2.k.Y b < FX$ IXIXIXIXiX* d d X KXU.# @XX X X X X X   +   X bXxX. @XF %.#.*.+X> X X X + @ % - X $.X }.$X).5.8.3.t.v.",
"k.w.x s.k.N.x Y h Y [.  UXUX' . l T o o - X IXI.%.[ . #.M X X     JXSX  X .     > # $.o.o.#.] K.+X* X . o t * o dX%X{.t.).9.:.8.",
"b ~.'.j.n x A N.N.{.dXo # 5 o m.=.<.O yX2XH.. cXgXX F u t o d X w PXHX= X X q .   X .   o P &.o.+.+.o.K.K.+.K./ #X}.&X).V.].0.4.",
"V -.y.!.'.v.5.c.j.l $ o KXeXeX+ o o PXxXjX  .   o 7XM X i X *XG.>.  # r o   UXKXX X   X X     X # l %.#.+Xd 2 XXsX>.}.A.B.oXd.8.",
"4.T k.Z ].^.^.= IXR   X & 1.X nXeXkX  X < KXtXeXkX. hX-X-X% X.U.M     r o   HXAX  o { t   o ] d r X     @ & g g.).XXA Q.7.i j.7.",
"k.h N.f.~...a LXGXLXFXIXSX3 X + X & DX0XY O = <.D.% + & M + & X aX-X>XsX  o . . *   x = >   v [ J.o   o n.m g j Y.g u c c z j j ",
"f.w.j.I i B X 4XvXG.> 8XkXHXPXKXPXiX& + _ bX8X+ o HXeX0Xo tXrX2XO F.<.< G.G.o & v P l.G.X.D.. &   j J.*.J.+Xm [.^.~.w.!.!.^.Q.k.",
"c.t.-.j.A d.< AXC.D.N 3X3X:X,X3X4XzXLXM IXC.J.o + X o Z.= 1.F.<.l o * q E SXO y 5Xc = X.> . = @XP.[ m *.*.P.l oXb B.Q.c.N.M.A.g.",
"V.d.0.S 5.t.S X yXhX< 2X:X:X;XHX{ >XsXX PX^ X X M PX_ O X X X & pX-X-X# tXtX<.X { 2.X # n F.P.] +Xo.p *.@.r v.{.;.x._.S.B._.A.B.",
"^.t.t.8.5.8.3.< B. .o   + * hXgX-X7X8 kXHXhX& n.o F lXHXUXGXKX7 @   . o & { L.o   X qX,X<.+XX.+.o.{ > & . X 5.(.y._.(.V.g.s.r.e.",
"N.N.t.A -.S C k LX>Xr X 2 1 D : + . LX5Xw Y X <.jX@ F fX3X3X4XZXPXHXPXNXO   o ,.-X5X{ P.o.o.o.T.X   & T.@.X (.N.{.{.c.N.Y b k.S ",
"$XV.N. .f.V 7.u.IX>X* . + @ GXU.& X =XX MX>XX o 4Xv X @.5Xm.vX:X5X>X6XDXPXFXl.P.+Xz.$.+.} D . o @   4 *.*.: v r._.M.A.c.V.x v. X",
"#X#X#X&X_.r.u.u.UX>X* X 7 Q GXU.@ # >Xo iXH.X X / >Xo * }.4X7X:X>X>X> -XxX0Xr @XF * &.&     &   X 1 a } +Xl N.^.V.V.{.M.-.h XX5.",
"S.#X#X#X$X'.~ 7._ >Xy X W L LXU.&   qXX z H.o r & -Xs o o X X o a xX* 3XzXH.r ] +XX   @ +   X 3 - @ p O.z.f.A. X!._.r.w.x h B 8.",
"r..X$X#XS.^.v.Z   2Xw.X   + PX7X& X FXy kXD.< -Xo 4Xm X ;   6X* + o X , xXz O o + o X X 1 ; - @ - - - O.t Q.V.c.{.(.d.0...2.3.V.",
"S.A.r.9.|.V.).{.5 kXsXO 7 OXPX7X& X BX4XO sX5Xv . ,Xp   K X 7X* . q 3 J d #.t X . X 4 - @ X @ ; o   o O.o ~.g.N.k.I C ..6.2.5.x.",
"-.g.y.4.v s.!.Z.I LX3X> 6 K PX2X; G X PXF.= o O ZXfXX X w X 7X* + iXO q :X8X{ X X ; @ X - 3 2 3 1 @ * }   0.r.-.s.S k.t.j.T I !.",
"w.t.2.7.h.d.8.v f.PX3Xp X   PX3X4 G W X KX0X,X,X7X;   o L X >X* . ) ' 7 3X8XO.  X 1 1 2 2 2 - 2 -   u.} : !.g.k.c k.y.x.g.2.A p.",
"c.k.2.V ~ 8.3.x g.SXD.r : < UX:Xp X # e . # . X + X : ` VXX >X&   e L 8 3XgX$.X X o X 2 1 - 1 X   & +X+X7 _.b.~ x v.(.b.c.t.0.d.",
").A.c.M.r.2.2.v.C mX_ X # 0 NXU.p 2 pXMX.   X $ 3 5 G q q   >X&   OX. $ 5XgX} o X 3 - - - X + 3 @ 2 & r < S ~.u m !.b.].!.).x.y.",
"{.{. X{.y.8.S B l vX9XsXo X X * ; : a 0 L K ` X #   . O w   >X&   q 0 . >XgX} o X ; - X o ; - 1 o X D.[ o I ~.u f.k.Z.A.#XV._.(.",
">..XdX X Xb.5.0.2.vXnXH.f zXIXNXX @ X X 9 6 9 6 E < z NXaX  >X&   K Q . >XgX} X     o 1 - - @   * o ] ] : h y m.V N.`.^.].(.b.n ",
"v $X .}.9.{.d.Z g.G hXH.* X.*.X.2XzXKXJX5 @     $ q 0 0 0 X H.* + W.O   >X8X} o + * - - o X & +Xo.& [ & l ! ~.8.s.k.d.^.)._.>.V.",
"{.c.B._.B. Xv.5.-.c.E.g k = & < kX<.*.*.I.1XGXUX_ X X o + X zX*   0 6 + 3XfXO.X X o @   * L.o.O.r   & < ! s.b.f.k.T A M.(.XX!.b.",
"A._.S.B.'.|.s.d.-.k.[.A.@XsXn.oX! 1   X sXI.X.*.X.fXzXPXJX@ X X   @ 0   G.U.O.X X   > L.o.O.m . y 7.u ~ h.N.9.l.r.x s.M.B.v./.i ",
"oXuX{.oXi y u g ! t.A.dX#X#XdXZ.V.b.3.p.I k   O U kX{ =.X.fX9XHXKX7 + $ z > X &.* +XO.O.P X y R.E.u.A V `.t._._.V.Q...8.8.S h [.",
"h j j j m ~.k.j.B c u j.V uXY.u.B R.u.V e.m.[.oX~.l . X , kXX.} @.F.& vX1XhXJ.o.J.#.&.+ a.R.! oXd.b x /.(.q.'.x !.|.V.a.h.A t.N.",
"Q.A R.I ^.!.x.Z d./.p.e.T y l ~ ! i < u < l a.u u N [.N.R.k : X O m.> qXZXH.t { D o ! N.{.M.t.8.t.2.g.].(.0.5.3.'.|.9.5.~ C d.y.",
"t.8.A 7.`...C ..b.{.{.}.g.|.N.V.).c.~.b f.~.A a.oXv M.^.N.8./.{._.R.k < <X0Xf s ! m  X).#X_.V.x 4.4.c.b.`.t.2.8.N.{.(.5.0.3.d.!.",
"_.y.~ k.8.'.d.-.^.'.(.c.9._.r.A.x.Z.(.y.f.V |.^.[.k.Q.t.7.g.B ^.A._.M.B.g & < j.y.v.{.{.}. X^.s.T y.y.q.(.d.-.8.B._.].x.:...2.v.",
").y.2.s.!.k.y.2.y.;.).'.(.^.A.A.V.].(./.x t.^.XXj.i.8.3.5.T d.Q.g.y.|.(.Z v s.M.V.^.c._._.{.y.t.T d.V.9.(.r.Z 5.;.9.{.I.XX>.5.c.",
"`.B.9.3.g.d.C 0.^.9.>.V.(.).(.b.q.^.!.S 8.p.k.I [...6.5.8.w.s.3.y.V.(.v.B.c.5.Z 3.N.k.{._.Z A._.^.-.y.r.b.y.(.).A.dXn fXdX$X9.0.",
").V.(.g.....c.v.oXB. X(.).).^...B k.M 6.8.I '.oXXXk.3.b.g.5.i.8.c.^.(.!.c.M.:.k.^.V t.(._.M.(.S.}.N.t. .l._._._.:.C.fX<.fXZ.t.d.",
"V.A.^.0. .!.V.y.).-.,.B.b.V.Q./.x s.XXh j k.v.{.{.(.!.d.`.Q...6.2.S s.d.V.Z ;.V.V.8.k.y.(.{.Z.l.c.Z Y e.(.b.g._.h dX<.I.q.}.9.c.",
"!.'.i.3.].XX%X;.c.(.V._.c.(.N.A h dX~.x u.N.^.A.(.c.x.-.s.2.s.A S S 2.b 2.t.).t.{.V.'.V.c.g.k.Q.k.5.j C /.%X].S.l.fXlXI.dX$Xy.s.",
"V ..M b.A.(.{...).(.Z.| d.!.2.~ h -.;.2.j h.B.^.).).B.g.r.k.~.b...t.S S h.M.).M.V.A.!.V.c.k.2.8.m p.~ s.V ).!.Z.n.| x a.b Y 7.m.",
"4.8.!.B.A.5.).{.| ].A.!.N.h.S u.N ^.|.t.t.t.M.M.M.(.3.9.v.^.g.t.g.s.7.! f.N.B.v ).(.(.N.v g.w.t.e.p.x p.S V ~.|.M.{.u.g z c l g ",
"T T c.c.l.3.!.).N.(.g.k.T A 7.! N V {.|.v.Z s.5.N.S 2.3.c {.N.B.N.s.p.a.s.5.N.y.V.A.A.B.N.d.A.5.k.8.C A k.N.[.p.u A ! e.dXN.{.~."
};
