/* XPM */
static char *_9524_51a5592e5d8ade6679fc75cdd0e2d6c104e3527c3ba7227a8403495941e9688b[] = {
/* columns rows colors chars-per-pixel */
"64 64 254 2 ",
"   c #010102",
".  c #0A0202",
"X  c #030905",
"o  c #0C0905",
"O  c #02030A",
"+  c #09040A",
"@  c #020A0D",
"#  c #0A0B0C",
"$  c #170805",
"%  c #0A140E",
"&  c #18130E",
"*  c #010513",
"=  c #030A13",
"-  c #070A17",
";  c #010C1B",
":  c #130D12",
">  c #091616",
",  c #02121D",
"<  c #0C131C",
"1  c #141719",
"2  c #26140B",
"3  c #351907",
"4  c #331D14",
"5  c #1F231C",
"6  c #312218",
"7  c #010B22",
"8  c #050A25",
"9  c #031323",
"0  c #0B1424",
"q  c #02142A",
"w  c #031A2D",
"e  c #0C1B29",
"r  c #161C24",
"t  c #041B35",
"y  c #131C35",
"u  c #0A232C",
"i  c #1A2328",
"p  c #032233",
"a  c #07253A",
"s  c #152736",
"d  c #173138",
"f  c #252A2C",
"g  c #3A322C",
"h  c #272C33",
"j  c #273638",
"k  c #3A383B",
"l  c #481A05",
"z  c #4B1C04",
"x  c #531D04",
"c  c #720F11",
"v  c #4B250E",
"b  c #592407",
"n  c #5C2A0B",
"m  c #472715",
"M  c #5A2C15",
"N  c #593219",
"B  c #662A09",
"V  c #742D09",
"C  c #6E310D",
"Z  c #76330E",
"A  c #672C14",
"S  c #742F13",
"D  c #683416",
"F  c #743413",
"G  c #763615",
"H  c #7B3B14",
"J  c #743C1B",
"K  c #7C3E1B",
"L  c #4D3327",
"P  c #5A3A28",
"I  c #693B24",
"U  c #753D23",
"Y  c #7C3E21",
"T  c #39423D",
"R  c #77401A",
"E  c #7C411D",
"W  c #43453C",
"Q  c #69422A",
"!  c #774527",
"~  c #7C4322",
"^  c #734C37",
"/  c #031E45",
"(  c #042443",
")  c #072847",
"_  c #022C4D",
"`  c #172E46",
"'  c #083349",
"]  c #193646",
"[  c #032B54",
"{  c #073755",
"}  c #02355C",
"|  c #153755",
" . c #283B48",
".. c #303A49",
"X. c #033765",
"o. c #0C3D6C",
"O. c #0F4557",
"+. c #15465A",
"@. c #384548",
"#. c #264556",
"$. c #344A5A",
"%. c #36595E",
"&. c #074569",
"*. c #044776",
"=. c #125271",
"-. c #2A5568",
";. c #2F546E",
":. c #306571",
">. c #464948",
",. c #514F4E",
"<. c #495659",
"1. c #5B5958",
"2. c #685548",
"3. c #68584F",
"4. c #57605D",
"5. c #6C645A",
"6. c #4C5A66",
"7. c #5B6266",
"8. c #486A76",
"9. c #526E78",
"0. c #707372",
"q. c #8B2C13",
"w. c #833C17",
"e. c #84421C",
"r. c #8A441C",
"t. c #89481C",
"y. c #92471B",
"u. c #B24D09",
"i. c #844522",
"p. c #8B4622",
"a. c #854A24",
"s. c #8C4B24",
"d. c #844629",
"f. c #854C2B",
"g. c #8C4D2A",
"h. c #934C25",
"j. c #934D2A",
"k. c #984B28",
"l. c #885324",
"z. c #8E512C",
"x. c #94522C",
"c. c #985529",
"v. c #9A532D",
"b. c #874B35",
"n. c #954F31",
"m. c #8C5334",
"M. c #8A5739",
"N. c #945432",
"B. c #9B5532",
"V. c #9C5A34",
"C. c #945938",
"Z. c #9C5C3A",
"A. c #A3572B",
"S. c #A75B37",
"D. c #A35C34",
"F. c #A35D3A",
"G. c #B55E33",
"H. c #9D623D",
"J. c #A56036",
"K. c #A5623B",
"L. c #A96338",
"P. c #AB643C",
"I. c #AC693E",
"U. c #B1653D",
"Y. c #B26A3E",
"T. c #B96B3A",
"R. c #BC703D",
"E. c #CA783F",
"W. c #905B42",
"Q. c #A25C40",
"!. c #9B6445",
"~. c #916B56",
"^. c #A56441",
"/. c #AB6541",
"(. c #A56A47",
"). c #AD6B44",
"_. c #AC6C4A",
"`. c #B26642",
"'. c #B36B43",
"]. c #BA6D44",
"[. c #B46D4A",
"{. c #BA6E4A",
"}. c #AD714B",
"|. c #B57145",
" X c #BB7343",
".X c #B4714B",
"XX c #BB734B",
"oX c #BB7A4C",
"OX c #A96E53",
"+X c #B97854",
"@X c #887B70",
"#X c #C57849",
"$X c #C47B4C",
"%X c #C77852",
"&X c #C47C53",
"*X c #D17F50",
"=X c #8E887B",
"-X c #AE856C",
";X c #C98558",
":X c #D68852",
">X c #E98C53",
",X c #E09764",
"<X c #054A84",
"1X c #065686",
"2X c #145988",
"3X c #255980",
"4X c #156A89",
"5X c #076599",
"6X c #166693",
"7X c #317089",
"8X c #387899",
"9X c #025EA2",
"0X c #086AA7",
"qX c #4E6E81",
"wX c #4A7588",
"eX c #477B95",
"rX c #6D7A83",
"tX c #4179AB",
"yX c #3C8CAA",
"uX c #3792AC",
"iX c #3C92B2",
"pX c #558596",
"aX c #528996",
"sX c #728A90",
"dX c #4695AA",
"fX c #4E90AA",
"gX c #6896AB",
"hX c #5EA5BD",
"jX c #75A5AE",
"kX c #79AEC8",
"lX c #7BC2D2",
"zX c #8E9291",
"xX c #A29D99",
"cX c #A9A596",
"vX c #8797A3",
"bX c #90ACB1",
"nX c #A8B1B0",
"mX c #B7B7B9",
"MX c #D4B1A3",
"NX c #B9C5BF",
"BX c #C5C4BD",
"VX c #88B7CC",
"CX c #AABBC1",
"ZX c #97C8D6",
"AX c #B3CBD0",
"SX c #9CD2E8",
"DX c #B2D7E5",
"FX c #B1EAEE",
"GX c #CDD1D0",
"HX c #E4E2D6",
"JX c #D3E8ED",
"KX c #EDF0EB",
"LX c #F4F7F8",
"PX c #FCFDFC",
/* pixels */
"].L.).B Z.F.F.B.Z.h.a.f.F N.).Y.].S.U.k.Q.B D g.f.C }./.P._.H J g.n.M.D x.B.s.h.p.E x.c.D.A.v.h.j.N.c.B.{.v.e.v.n.D.s.h.'.].s.oX",
"k.H F v.B.J.'.'.e.D.v.~ n x.Z h.S.U.S.S.S.B F.B.V.f.B Y w.g.g.h.B.n.B x.V.v.w.V.F.N.B.c.S.v.p.t.p.w.Z h.S.v.x.j.j.j.V..Xh.v.k.V ",
"v.H E ).'.$XoX'.&X'.P.N.J D K.e.'.A.J.U.D.V [.'.K.x b.f.f.N.`.+X{._.A oX%XXXXX).J./.V w.].'.c.e.g.F p.j.S.v.h.j.g.i.i.z.w.Y.Y.'.",
"N.E i.c..XY.]..Xy.P.`.g.R b Z.Z.D.t.k.H c.B +XZ.B f.N.b.d.n.{.'.'.Z.b e.! XXXXXX#X.XA.c. Xr.D.'.P.i.p.p.A.U.L.s.i.p.i.g.v.'. Xy.",
"Y m.N.N.v.h.$X;X'.V.oXF.J n ! H.L.K.x.^.a.b n b N.g.e.d.d.g.^.P.G D D 2 _..XY.S.'.'.'.oX$X,X*X#X.XY.R z..X%XT.r.W M H E V.D.L.y.",
"B.s.s.x.j./. XY.`.K.V H.m.x C.).K.^ J.'.K.b n P K.v.a.~ g.n.B.^.b !.- m ^.P.[.].k.p.k.y. XR.R. X{.Y.x.l.~.bXO.+ J.B.a.g.s.S.y.L.",
"[.oXV.L.w.j.h.B.N.H V g.a.b (.L.'.2 '.).a.D R N l.x.N.Z j.n._.x _.'   C.^.w.v.'.e.e.r.h.L.;X].B !.xX4Xt     $ :X#X#X/.h.y.w.*X$X",
"&X'.$XXX.XD.G A J e.J.v.l.n D L.5 !.).R b +XHX+X;X!.w.N.n.! n Y =.. 2 ^.^.'.F s.s.t.x.L.H.B bX5X)   X X   o E.R.$X%XXXD.r.A.R.#X",
"XXXX|.S././.C.M.B ^./.F.N.A A P 2 I..Xn E 4 3.].i.;X! B.B m.Z.=.    n _.F S Q.B.i.~ g.I 7X=.O     * *.0X0XB.p.L.r.$XR.U.Y.U.#X#X",
"^.|.J.{.).I.M.D z.+X%X'.).C m =X^ c. Xn 2 =XJ  X+XN 3.^.x D.eXO O   M.d.^.F.L.B.i.Q 6X{       * [ [ -.$.N S.Z F.B.w.I.F.D.%XA.A.",
"|.oX).[.K.! D b m.e.P.%X{.).xXo (.}.L.3 cX2.|.oX$ 3.+XI !.jX        I Y Z.F.S.J 4X[         r t _ X.X.X.i./.).K Y K K.z.c.D.|.#X",
"S.D.).(.b z J C.i.F.XXL.;X5.1 M n H.6 0.T .Xb $ 1 J b C.@X          . d.v.v.pX2X        O ; _ *.5X0X0X9Xj.G g.Z.x.i.z.z.t.H L.H ",
"^.!.C.b ! C.B.g.C._.D.I.3.zXn L.R N KXk 5 M.1.KX% H.+X3.O             . @X2XO             = , _ X.&.} SXb.i..XF.j.Z.a.C s.s.F.Z ",
"n B n l H.c.v.C.J g.K.M.HX1 R.H.l.NX@X@ T JX1.  #.AX1 ' +           + hX|               X X u <.rXvXsX%.> J Q.U.oX'.v.g.g.s.B.D.",
"Z.C.d.Y ^.V.N.J ! g..X5 & g (.! T =XX f j X KX  i @ &.<.          + =.s       O ` 7Xe O           O         @ a =.zXW.m.e.x.c.P.",
"f.B B B.B./.V.z.N.K.b.KX  . z BX5.X     X @.    X o KXAX.         4X9         .                     * 9 t a w ; . i..XC.j.K.V.i.",
"K Z.P./.P.C F.P.c.B.xX# @ X ` j 1.# nX$.= nXX GXW eX$.    X   o  .O w                     O * = e ) _ _ X.<X<X;.%X%Xk.J.B.e.C.d.",
"'.).L.F.x.Z.{.XXP.i.1 =   O.O O @   0.X 8.@ %.PXf X >.r f   X wX  GX;.                      * 9 { X.} [ X.<Xo.Q.+XXX#X.XJ.V.m.N.",
"s.|.P.j.G F.[.XXq.,.O @ yX; 0 * -.+ 1 s nX  j X   1 . X       6X; ; 7X      O @ u -.8X7Xq O   q [ =.6X} 9X0X0Xi.+X[.+X_.m.a.! n ",
"H '.A.c.p.Z '..X].;.wXVX_ , qX6.O   @ e ; 1 @.  X   + NXNXPX1 VX[ [ 0                 X       p 7XDX* } 9XZXtXl l x z U z l N ! ",
"Z.|.S.H i.k.V XX%Xh | *.@ AXbX= X ` 7 . X i <.GX  @             ;   O     i *         O             O a fXd *.;.C.n +XoX+XZ._.Y ",
"K.D.A.t.P.'.P.j.S + t _ DXZX .X gXeXy ;   - 4.f O KXGX#         - ; 9 t = O     #.*               O       . w bXv P. Xr.s.{.XXD.",
"B.h.'.P.XXP.`.P.~.rX- 8 ;.8 c X ' ` 8 a . O 0.# j GX  r ' ' GX    . pX} - AX      @ ) q     O 0 * ( } 1X5X{ ; X * ,.c.'.XX|.].'.",
"s.J.'.#X$XU.w.%X`.pX8 FXy $ HX7Xt s   = k   > nXPX  7.  . + ] @     . t 5X@ KX        @ q /   O { / [ / { 6X0X<Xr . + ^.XX X'.XX",
"j.F.p.A.].|.D.+X+X^ O *   O d q o 0.y 1 X O # KX  O ' o   r X xX        6X1X&.0.            a p ) 0Xo.1XX.) N.n.G w.Z.J.'.P.F.k.",
"~ C '.Y..XI.|.x.Z.I.;.O O jX, 1 & 7.0 L   mXX     s # wX  ; 9.>.      O . 5X@ *.                -.* X.&.4XA.Z.h.].k.D.k.c.H F.P.",
"R ~ ).'.'.J.i.Z.J v * . kX* h >.1.r * O   O - zXzX0 = _ O   s %.          lXq 0XzX    O   . * @ $ @ vX=.5 |.#X*X#XoX'.g.j.i.x.F.",
"H.g.B x.K.^.b R B <.7X]  .. mX+ c | ,     . X +     ` @ KX. * + HX        8X` 2XCX; O * 9 t } *.=.( X GXQ +X+X&X;X%X[.j.[.h.t.s.",
"C (.[.Z.C B K K.2.wXs O rXL f + cXs + I B.  .       q 7 AX  gX+ mX        <X8 6XJX  ; * 2XX.*.*.AXP I m b.c.I.$X#X X&X'.P.{.g.i.",
"C e.v.U.[.F.p.=X} | ` @ zX* MXc >.; . C Q.-X5 fX-.  e 8 wXO @.GX      X bX7 . }     O * 8 o.6XpX>.(.! d.(.R.|.$X:Xy. X'.I.oXN.g.",
"f.w.Z.H {./.).C { _ ( ` = ,.q.$ > = M.B.Z.Q pXiX,   + 8Xs     |     X   &.s u GX  + ; w * 8 <X1 O X L 4 z v J C.'.oXJ ^.f.x C.z.",
"Z.b H.C./.e.^.H.2.8.P }.5.c @Xc 1 8 ^ s.z.Q ,.9.>   9 s ' X   - .   > =., O d + 0 0 a t [ : 0 % r O   + e <.M n W.z z n B N b n ",
"B.a.W.mXg M A x M M v l c z . 0.% ; $ x x =X7XfX*   0 X 1   9   : kX' O @ t   O p _ ' HX  = :.* * ) ' sX  ^ (.|./.(.l././.).K.Z.",
"K.c.$ PXLXI !._.d.Q.Q.A x (.Q = X t OX(.b fXuXdXf + | 7   i #.FX} @ X { |   O ) _ | W     O ; :.] 0 FX( +.> O ` jXC.L.D.P.J.).V.",
"K.V.D PXPXC.Z v._.^.M m.K.g.).Q 1 P Q.S.3.uXdXq   e * @.  X AX= X  .$.} .   JXGXt JX. X @   O         q ; &.<.      P U.Y.|.Y.P.",
").x.n.m PXPX$ P U /.j.N.j.h.V.v.j.'.#X+Xo . 0.# < ) X <     _   @ q _ *     O   & #   u 9.:.DXZX9.9.O X q   ( sXX Y.T.P.V.N.c.s.",
"D.P.N.J i.J A U Z.v.x.e.s.G b.f.x.Z _.HX7X8XO   O ) - AX  >.  jX+ +.w   1.X   O #   gX| a ] ; } ( } = O 7 { - [ # 3.D.K.H C Z.H ",
"$XL.J.w.B.F f.N.D.Q.Q.^.A.6 , D s.L.~.yXiXuX  O t   ; &     @ 8XO <X      0.    O s , - *.< o.0 _   [ 6.O r ; ; +.  g J.P.B K..X",
"#X#X%X*X'.v.s.h.j.D.^.Z.6 , , t.w.! JXiXuXaXO ; @ e #       [ 1XVX[         -   wX<   1X' 8.a )   / . `   @   ; X.AX  1.R B +Xs.",
"R.#X#X X#X'.I sX}.*XF.N.E b.6 H e.^ yXyX+.  = 8 O t . r     / 3X*.t       >   & eXO = O.qX( O 8 :.O   ; } , O ;  .*.X ~ B b D g.",
"c. X$X#XT.U.M.  a +X;XoXoXL.Y.I.K PX5 i zX  = r @ X 8.vX= , ; * 9   @   @   @.eXfX#.    p t a * a s  .*.*     $.7 , sX~.w.d.s.L.",
"R.Y.k.c.|.U.).L X $X,X:X;X X'.R.z.FXyX-.p X p * 9 =.7 } @ u t O < $ vX    X  .GXfXgX      a y a O w X =         * ; bXO I d.p.S.",
"E V.V.j < ,.P.P.< XX X X$X> }. XW.lXiXiXuXf 9 * jX9X; *.8   X ) *.O.vXX   rXuX, %.*         t s 9 e q   #     # <   pXO t K i.^.",
"s.z.~ Q     ^ A @ T.P.v..Xj f |.Z.uXyXyXdXi , SX-.9X` a @   < [ &.=.  X * jXuXfXnX             .0 y * < ; 0.i zX* [ 0   Q.d.J m.",
"F.F.i.F MXX O X   M.S A ).0 ,.Z Z.fXiXdX9   < _ { ; ) $.* O r } =.ZX  = uX7.dX* bX            i   @ w w s e i   7 e 7 O C.x.h.B.",
"Y.P.D.1.j ; O       5 Q 2 O I v.x.# JXCXX O 9 ;   } * * ( 7   * X o ; dXdXO     h     @ PX              * $.    * - t * 2.).A.v.",
"|.|.P m @ e       O e =   L p.g.N.5.LXJXe @   O   * [ #.0   8 O   8.] t eXO +   X   O PXLXPXPXPXPXnXh   ]     O (   0 1.k U.{.`.",
"r.#X%X+X7 # * .       r | bXQ a.K I aXdXyXdXeX      * ; ; s *.$.- qXgX%           >...f  .1.zX@   =   * sX    ; 7 @ | 7.4 `.U.S ",
"V $Xw.#Xo R.A.rXO       $ ( X.' sXO xXuXyXdX- X       = X - O =.# ]   #       . >.r nX< r h 6.bXy * < =       0 O * O m [.'.p.P.",
" XV.P.Y.).XXF.g.E C.^ &     O O   O O i gXpXX pX1.    :.aX- ' O GX    O   O . PX<.  >.  vXO 9.; @         X 1 ( @ O , ! '.XX`.F.",
" XR.R.L.'..XN.C.i.Z._.R.~.. O       O   GXvXbXu + o 7 jXX &.$.t X # HX  : PXPXPXnXzX# 1.j   +.@ : & k   0.O i w O ; s J.J.S.[.x ",
"+X+X|.+Xl l x x ! x.'.&X#X#X&           X X @.  . wX; 9.&.= =   + @.  1 PXPXPXPXLXLXzX7.LXPXh PXPX1.AXX   ; ]     O GXf.g.J B _.",
"b b n b A (.W.C.F m 6 7.D -XV.5.                bXO.1X|       O zX  KX1.@ ..GX5 1 LXPXPXPXPX@.mX5.= k O -.O = +   : b.M.C.J N.F.",
"!.J W.Y _./.D.q.0.d 8   7 5 v 6 LXX > X   . AXAX_ X.. O     @ @.NXLXPXLX# = <...@ sXO - X - . 0.jXi   +.q r     : 4 y.g.Y H B.B.",
"v.g.J a._.w.G N C.$ O   . O + * d ; >.O j ,.kXgX/ O O     O <   LX0.O AX..; e - - jX< . O O O O % DXfX* ; O r O h ].I.p.j.p.B.^.",
"].v.~ H.j.[.N.w.)..X'.=.VXe t / fX8 p gXZX8X-.0 - O @ 0.>.I Z P.> a ; .               t O _ O O.:.; _   *     : L.T.XXV.p.w.p.S.",
"'.v.s.N.Q.F.B.t.x.r.m ) O     O . + = hX7Xo.' O P b.s.p.l.e.^ 0 O   2 ^ S B Q 3           0 O ; @ : 0 #     3 h.t.l.R.R.#Xt.t.S.",
"{.F.h.i.D.N.G x.).h.<.  ~ './.ZXgXo.a O X.{   3 OXi.d.s.h.4 u   & ).'.D.F.F.s.H a.Q.=XO X =           O 2 j.U.[.|.$Xq.>X:X$Xh.j.",
"`.P.'.Z.w.w.D.K.oXI.(.).'.'.W.9 X   .       # ~..XF.p.F.V.f.; 2 S./.'./.D.J.p.Z.).S c.).^.N 6 4 4 N ! e.A.].{..Xs.G.>Xu.>XT.c.B.",
"P.P./.j.w./.S.v.).e.h.L.S.L.2.. O U OX3 . o I XX{.'.).B._.cX, I e.G N.V.K.H r.P./.g.B.v.'.|.Y.D.F.Z J s./.G.A. Xx :Xu.E.y.XXh.B.",
"/.[.j.g..X%X+Xr.S.`.U.].D.`.W.; o ;X'.B b.!.'.P.'.D.A.p.N.L . ..z ~ i.C i.N.'.j. XK.[./.D.V.H.^.Z.g.b H /.%X{.U.A.>X:XR.:X$Xv.x.",
"F i.S S.`./.XXw.`.U.U.w.B./.i.@X@.K r.i.B V.K.I.'.).P.B.c.F.g Z.E g.K K Z.F.'.L.U.`.P.P.D.B.i.g.A m.~ N.F './.P.G.q.C C.D R M.C.",
"f.j./.F.U.h.'.[.w.{.`.^.^.Z.K f.N /..Xx.j.N.K.K.F.).s.g.Q.(.D.c.V.N.g.! C.K.P.V '.`.).L.V V.g.x.z.n.B m.R J I..XG.).^ b N M v z ",
"K e.D.D.A.p./.'.J./.B.Z.K G g.! D F |..XF.H v.s.K.w.e.p.B [.J.I.K.N.m.M.N.a.L.v.Y.U.P.I.K.B.I.s.V.g.J J V.H.}.M.l R ! z.;XL.|.}."
};
