/* XPM */
static char *_215_026c95d9fbd429d7589f323e47af48e2b61da43f290d710f44467bfa47e1292a[] = {
/* columns rows colors chars-per-pixel */
"64 64 232 2 ",
"   c #0C0A06",
".  c #0F0F0E",
"X  c #120E07",
"o  c #14120D",
"O  c #1A150C",
"+  c #151413",
"@  c #1A1613",
"#  c #1C1A15",
"$  c #161818",
"%  c #1C1C1B",
"&  c #201714",
"*  c #211C15",
"=  c #211E1A",
"-  c #1E201D",
";  c #23221D",
":  c #28251A",
">  c #29251B",
",  c #1E1E21",
"<  c #241F20",
"1  c #1E2123",
"2  c #242423",
"3  c #292623",
"4  c #272926",
"5  c #2C2A24",
"6  c #24262A",
"7  c #29272B",
"8  c #25292B",
"9  c #2B2B2A",
"0  c #312C24",
"q  c #322E2A",
"w  c #363329",
"e  c #34322C",
"r  c #39362D",
"t  c #262930",
"y  c #2C2D32",
"u  c #312E33",
"i  c #2E3133",
"p  c #2E313B",
"a  c #333333",
"s  c #3B3A35",
"d  c #373638",
"f  c #3C3C3B",
"g  c #403C2F",
"h  c #423D33",
"j  c #423E39",
"k  c #44413B",
"l  c #49443B",
"z  c #55473C",
"x  c #393C42",
"c  c #3C4146",
"v  c #484847",
"b  c #524C43",
"n  c #524E49",
"m  c #56524B",
"M  c #5A5549",
"N  c #5A554D",
"B  c #4C4D52",
"V  c #535354",
"C  c #5B5552",
"Z  c #5C5953",
"A  c #575659",
"S  c #5C5C5D",
"D  c #615A4C",
"F  c #625C53",
"G  c #655E5A",
"H  c #656154",
"J  c #6B6355",
"K  c #66645B",
"L  c #6B655B",
"P  c #6C695E",
"I  c #766B5B",
"U  c #736B5D",
"Y  c #7C705C",
"T  c #5B5B62",
"R  c #605F65",
"E  c #5F6166",
"W  c #626364",
"Q  c #6D6A64",
"!  c #686868",
"~  c #726D63",
"^  c #786F67",
"/  c #736E6A",
"(  c #6F726D",
")  c #757165",
"_  c #7B7364",
"`  c #7F7960",
"'  c #76736B",
"]  c #7B756B",
"[  c #7D7A6D",
"{  c #6A6B73",
"}  c #6E727C",
"|  c #757674",
" . c #7A7571",
".. c #7D7A73",
"X. c #72747B",
"o. c #7C7C7C",
"O. c #827764",
"+. c #827B6D",
"@. c #8A7D6B",
"#. c #907F6D",
"$. c #837D73",
"%. c #877F78",
"&. c #8D816B",
"*. c #92866E",
"=. c #868175",
"-. c #8B8375",
";. c #8E8874",
":. c #84827C",
">. c #8B847B",
",. c #8D897D",
"<. c #928775",
"1. c #938C7C",
"2. c #99927E",
"3. c #787B84",
"4. c #827D83",
"5. c #7D8186",
"6. c #848383",
"7. c #8C8582",
"8. c #8C8A83",
"9. c #84858C",
"0. c #87888A",
"q. c #8D8C8B",
"w. c #968B82",
"e. c #928C83",
"r. c #948E8B",
"t. c #8F908D",
"y. c #969185",
"u. c #9B9385",
"i. c #9F9987",
"p. c #95928C",
"a. c #9B958B",
"s. c #9D998C",
"d. c #878996",
"f. c #8C8E94",
"g. c #8E9195",
"h. c #8D919B",
"j. c #939393",
"k. c #9B9692",
"l. c #9C9A94",
"z. c #97979A",
"x. c #94959C",
"c. c #9C9C9B",
"v. c #A39787",
"b. c #A29B8C",
"n. c #A39D93",
"m. c #A29E9A",
"M. c #A99F9A",
"N. c #9FA19B",
"B. c #A8A18D",
"V. c #A6A194",
"C. c #AAA395",
"Z. c #A4A29D",
"A. c #ABA49B",
"S. c #ADA99D",
"D. c #B2A897",
"F. c #B1AA9D",
"G. c #B9B09F",
"H. c #9496A3",
"J. c #9599A4",
"K. c #9B9DA3",
"L. c #9297A8",
"P. c #9599A9",
"I. c #9B9DAA",
"U. c #A39FA0",
"Y. c #9DA1A3",
"T. c #9DA2AD",
"R. c #9DA3B2",
"E. c #A4A4A3",
"W. c #A7A7A7",
"Q. c #ABA6A2",
"!. c #ACAAA4",
"~. c #A4A5AB",
"^. c #A6A9AC",
"/. c #ACACAC",
"(. c #B2ACA4",
"). c #B2AEAA",
"_. c #B8AFA8",
"`. c #AEB0AC",
"'. c #B5B2AD",
"]. c #B8B5A9",
"[. c #BAB4AC",
"{. c #A3A5B2",
"}. c #A6AAB4",
"|. c #A6A9B7",
" X c #ABADB3",
".X c #AAAEBA",
"XX c #B2ADB2",
"oX c #ADB1B4",
"OX c #ADB1BC",
"+X c #AFB8BF",
"@X c #B3B4B3",
"#X c #BAB5B2",
"$X c #B6B8B5",
"%X c #BCBAB5",
"&X c #B3B4BB",
"*X c #B6B9BB",
"=X c #BBBBBC",
"-X c #C2BDB6",
";X c #C2BDBA",
":X c #BFC0BD",
">X c #C4C1BD",
",X c #CAC6BD",
"<X c #AFAFC0",
"1X c #ADB2C4",
"2X c #B3B6C2",
"3X c #B5BAC4",
"4X c #BBBDC3",
"5X c #B5BACA",
"6X c #BBBECA",
"7X c #C1BFC1",
"8X c #BDC1C5",
"9X c #BDC2CC",
"0X c #BEC3D1",
"qX c #C3C4C5",
"wX c #CAC6C3",
"eX c #C8C9C7",
"rX c #C3C5CB",
"tX c #C6C9CD",
"yX c #CACBCC",
"uX c #D2CDCA",
"iX c #C2C5D1",
"pX c #C5C9D3",
"aX c #CACDD3",
"sX c #C6C9D8",
"dX c #CACED9",
"fX c #CDD1D4",
"gX c #CDD1DA",
"hX c #D0D1D2",
"jX c #D1D3D5",
"kX c #D2D5DB",
"lX c #D8DADC",
"zX c #D5D9E2",
/* pixels */
"o > l b r o +.D 5 ; > O ; k z M z # +._ F _ o o ; o . -.2.v.v.<.b.-.) b.B.i.b.2.b.v.X -.<.u.>.L * J <.<.#.@.%.w.$.% n w.r.r.m.Q.",
"% F M M ; O -.L > U z h k r ; # = X b.&.Y O.C ~ J Y 0 b O.b.v.2.C.n.Z u.u.U b.v.v.w.O _ u.=.>.w.F O + X 3 j G ^ F . v %.j.j.4.m.",
"D N J ` _ H   X @.Y &.v.*.;.I Y F @ n #.<.<.l D O.v._ @ J v.-.G.C.~ X O.b.B.C.B.-.X o +.>.-.y.-.n.$.@ ^ $.$.n.7.V @ ~ $.m.z.U.M.",
";.;.1.1.1.2.b X @.Y &.*.*.*.&.&.O.~ . X > # 3 * U n.u.l +.I @.>.G.s # ' 2.<.u.+.O G = ..>.-.w.>.%.n.. $.r.k.n.v.M.& b / k.m.Q.Q.",
"1.1.1.[ &.) ) O D J O.O.*.O.O.@.O.1.@ G u.u.i.b.b @ r @ o _ O.J O j U @ O g > o w.+.G F ) r.7.+.w.n.  $.%.Q.M._.#X< o C q._.m.= ",
"1.i.[ y.2.;.B.X <.O.#.#.&.<.v.*.v.X -.C.v.C.y.B.@.* b I M @ O h w.v.O.D.y.^ + +.>.-.L > U #.%.w.m @ X o & j ] >.%.<  .r.@ = #  .",
"[ i.y.u.s.u.b.X #.O.2.v.2.2.@.O.O ~ D.i.b.u.b.D.^ -.2.u.1.O D ^ ^ 1.>.D.w.#.s J =.1.& O b D G O d U b.b.A.q o s C l.Q.M.k.#  .m.",
"1.2.i.B.u.2.&.  v.B.v.2.*.J > 0 +.S.C.8.-.i.v.b.* u.u.b.C.M ~ ] O.w.n._.b.y. .+ # n C j = % o %.M.n.r.M.[.U.G r.Q.).Q.q.E.% ).).",
"D I Y i.,.i.` $ * w g l & + b n.A.C.V.u.a.-.B.: ] n.s.-.,.1.Z ) $.+.w.M.v.M.b.X +.n.$.%./ 4.@ L >.e.b.n.r.o r.7._.!.(./.w.~ Q.M.",
"# ; Z H D U h @ j J D N q = b.s.C.u.u.a.y.a.) N 1.i.i.-.1.b.0 -.y.>.L a.M.(.$.s $.7.%.%.w.w.Q X N / q @ % O u.(.(.).).A.f j.#X!.",
"M M M > @ # # b O.O.%.L L * u.b.v.F.F.w.b.;.X ) 2.u.1.b.>.b.J N z G K m > ; + F >.a.p.s.%.<.4.3 o ^ ).r.k.X w.Z.7.(.(._.j.7.m.q.",
"y.2.;.y.&.[ = C ^ F ^ ^ ~ L o e N H D U D o $ H =.2.1.$.e.n.>.+ @ = Z ^ +. .# N p.a.n.r.4.O.w.! n u.%.Q.M.d j u.[.(.A.Q.j r.;X/.",
"B.B.s.u.u.C.@ D ^ ' ' ] U ^ ] e # 1.n.u.,.u.m @ P ) -.n.b.b.P ; L e.M.n.b.S.n.j s.1.q.4.%...7./ o ] ) P n.q + # o = # = + ] '.%X",
"[ 1.s.A.b.u.@ ~ ^ ' ^ ^ $.>.>.[ ~ u.a.M.1.+.N q P [ $.e.S.B.@ ] p.n.A.(.a.A.[.O %.%.%.%.F k.7.j m   K 1.n.=  .U.XXXX#Xq.4.j n.a.",
",.p.y.V.A.w.+ ] ] r.>.>.] l.] ] ..b.M.p.C.n.b.a.* H O.[ -./ $.A.w.b.(._.>.A._.%. .7. .G %.k.w.@ w.k % > q %.n.U.'./.#XwX).3 ....",
"[ y.,.B.b.s.@ n ] -...$.+.-.$.Q b 1.w.n.C.n.V.(.i.5 ] [ * # = A.A.p.>.[.Q.M.(.e.b ,.e.$.%.r.$.% 3 a Q >.u ^ Q.Q.(.;X#XwX7XuX= ] ",
";.1.A.u.S.,.( @ ) ] =.$.e.-.[ P o $.n.C.n.n.A.F.S.@ @ k A.!.# i.A.S.7.p.S.[.A.l.% @ G %.%.$.7.s C 7.%.Q.).G -X#X;X#X;X-X).;X< / ",
"s.y.s.n.s.l y.[ H ,.8.,.~ ,...$.. P $.$.a.M.n.C.n.> n.b.s.s.5 A.).r.a.n._.n.[.k.] C / r @ @ n a.k.r.r.Q._.v D.'.uX7XuX;X(.XXv < ",
"u.V.1.u.V.* b.C.l ) ' >.$.>._ [ + 2 [ s.$.n.n.V.= -.a.[.Z.-Xr a.Q.Q.m.[._.m.(.m ^ Q.Q.(.(.2 [ k.n.n.r.p.(.O V.(.hX;X7XuXe '.Q.Q.",
"e.A.s.u._ r P ..l o b H K ,.[ C o ' O 1.V.n.F.l.K l.n.n.].p.k.b M.a.k.'._.(.k.o F Q.(.n.).Z 8.k.r.>.r.r.Q.j = n.n.1.& ~ /.7X!.r.",
"+ z P * r ..) k b ~ H o o @ r [ w L < @ ) a.~ ; e.y.a.e.>X%XV.@ (.Q.'.!.[.!.G % @ 5 _._.%XZ G -.r.4.r.n.Q.C d j < % l.E.;X#XXX#X",
"- l b N 1.y.=.i.) ,.y.Z 5 $.Q e.r.& w ] P # Q ..= k.!.(.C.F.A.X n.C.a.A.(.q ..r.m.Q e * ^ 2 @ $.Q.n.7.r.Q.3 m.).l.5 !./.).#X=X$X",
"~ =.1.1.1.$.) 1.+.u.-.# G w.(.S.C.% p.u.n.~ r.b.C.o 0 O O o % @ v >.>.N @ + ,.k.'.-X#X(.Q.Q...O ^ :.p.^ + / C.v.(.Q.M.#X$Xm.7X#X",
"b.u.w.s.C.b.s.b.=.a.e C C.(.y.!.y.; C.C.F.!.) (.a.; P 1.,.>.r.,.@ @ e $.] V . (.!.;X).(.;X!.)./.= = 3 2 % -.a.r._.F.= j.wX-X;X#X",
"i.n.y.;.V.s.-.V.V...m S...-.k.(.'.5 y.y.S.V.[.r : b A.A.(.!.(.Z.# m ..$...8./ > :X].(.(.'.].%X5 a [.Z.U.# r.O.u.u.F.< # v a...% ",
"1.s.1.A.V.u.i.1.;.o ,.p.V.A.l.,.S.Q 1.a.V.C.[.].; 8.].S.S.%X].!.# ..r.n.A.m.r.' [ ].:X,X@X'.!.- Z.(.E.).e O.<.*.#.= ..e.).;X~., ",
"# i.i.s.B.u.D.s.; ' e.k.l.l.(.Z.(.l.K s.A.V.(.].K l.A.>X`.].Q.@Xm p.Z.E.Q.c.c.m.w s.(.[.wXp.- N ].A.%X(.n % ; 2 7 $ !.Q.!.-X#Xf ",
"P P : w D > - % @ :.' p.!.:XN.].].!.; y.C.C.(.a.s.y.a.p.V.[.A.) ' n.'.'.Z.Z.n.!.p.- ,.A.s.- @ s.!.).n.>X5 a %Xk.n.r.^ >X'.%X%X= ",
"+.s.S.( ..p.K s.| ; ..] k.!.Z.(.A.!.@ -.[.n.(.5 >.>.l.V.e.V.;.+ l.].'.Q.@X'.!.Z.Z.l.- + ; K b %X[.>X[.k.h p.A.!.[.-X= C.-X'.Q.; ",
"s.( | ( !.s.8.V.[.# | V.p.k.Q.!.!.!.= 7.C.b.D.- - p.s.B.) - ; # ) [.oXN.!.wXc.N.E.].Q.5 l.`.k (.A.s.).% p.Q.>X%X%X,XwXw Q.A.%Xn ",
",.:.l.e N.s.N.%X>X# N 8.l.k.t.s.V.; ; o a.(.;.; 5 ; = - Q p.p.a ) l.c.l.:.8.Z.p.Z.$X(.N.Z :X@ A.p.V.7.k A.Z.%X%X).-XuXG O i.;Xe ",
"=.Z.8.| !.`.N.S.A.; 5 : =.,.[ s v p.k.) G m w :.l.!.!.Q.:.N.N.8.- [ l.k.c.l.p.@XN.8.l.`.: S.e ].'.-X# :.l.!.#X%X%XQ.=XwX3 ; ; + ",
"p...o 0 '.!.$X!.:.Z =.v | S 7 ; '.wXN.:.o p.`.$X]./.`.'.$X`.`.l.p.v y.N.Z.!.W.E.].'.`.l.- e 6.m ; : % G !.!.>X>X%XQ.>X>X5 N./.S ",
"5 n 4 2 ].:XQ.'.# l.| q...l.o.; :Xp.'.y.s :XS.:XE.:X:XN.>Xg.W.`.`.- 4 y.Z.`.E.8.Z.p.N.l.P !.>X,X:X:Xk.; ,.!.!.E.Z.>X$X>X# /.N.!.",
"N.Q.l.:.; l.'.Z.o `.'.'.E.W.k.N.( c.N.$XS 8X`.qX@XjXeXyXeX$X`.$X$Xk 2 - :.l.N.`.N.2 a 9 j.eXyXeX^.N.yX'.# ] p.).%X=XeXl.# :X@X!.",
"8.@X$X$X=Xp.; $ # =X^.W.j.c.Z.N.6.Z.:XW.E.:XhXW.Z.hX@XqX'.aXeXj.:X; 4 f 4 :.j.Z.; 7.#X9 `.].$XfX=XeXQ.qXZ.= @ Q e.=.e.- 2 @X$X`.",
"*X8X@X$X$XtX`.K Z j l.N.Y.^.~.oX/.- 5 % =X$XqXeX:XqXyXyXtXlX$X`.N.i @X`.`.! 4 - o.:XqX- Q.lXyXqXyX$X$X=X*XV 3 4 9 9 9 1 S W.:X^.",
"@X*X`.oXoX:XqXqX*X/.f @X=XoX~.^.Z.S r.v S =XlXhXfXaXtXeXqXqX:X!.- :X8X8XoXg.j.f eX>X>X; `.tXfX`.=X=X:XyXqX@X7 6.c./.S 8 t.`.}.:X",
"~.:XqX:XOXrX*XqX~.:Xi :.~.oXK.l.2 ^.@XyXW.s eX$X:X:XhX,X:X( 8 f 9 oXoXR.^.^.5.S.:XeX$XK %XqXqX^.Y.rXtXjXtX9.a @XtX*XtXv ..j.Y.*X",
"oX^.8X*X*X~.~.&X8X`.8 - ( l.q.= *XrXeX'.$XW.d $ V p.V 1 0.^.qX8X! s *XY.Y.*Xk - + k.3 6.N.qXtX`.'.oXrXkXrX/ Z.fXyX%X$XfXf eXoX+X",
"j.^.9X*X8X8XrXW.q.; J.z.d % 3 =X=X=X4XqX=X=XqXW 2 c c.j.tXfX*XtXaXi - W v i ( :.@X5.V 4 N.N.yXaX^.oX>X$Xl.1 $XjXyXyX%XjX6 k.tXOX",
"Y.oXT.:XE.8.( - 2 f qX=XeXa K.tXtX=Xz.6X4XjXjXqX8 tXyX+X8XfXtXkX+Xf.i a $XfXkXaXfXtX*XN.- a.:.`.m.Z.o.Q - 3 eXoXE.aXtX4Xy c.&X8X",
"j.`.`.t.k ; S | d a b l.j.o.3XtXqX4X*X$X8XaXrXqXT tXaX*X8XtXfXfX8XtXa @XaX9XfX8XtXtX8X:X0.9 a Z e 9 a 0.B 9 q.@X4XaXhXtX8 W.tX8X",
"- ( Z 8 g.W.^.t.q.5.K.7 $ qXqXtXaXtXyX8XqXtX8XN.v tX9XtX9XqXtXaX0XfX- fXgXaX9XgXpX=X8XtX8X^.a o.E.4X:XtX@X; f.kXfXkXjXz.a 9 W 8X",
"2 2 j./.:.W.~.#X7XlXW.3.= 7XtXqXlX8X9X=X4X8X'.2 1 A N.qXkX8XoXyXlXc - 9XfX8XtX8XkXrXtXtXkXoXS :XqXyX#X*X@Xv q.kXaX8X*Xi }.K.gXB ",
"y 6./.U.tX&X^.~.*X~./. Xy 7.pXfX9XfXfXyX=X`.i 1X9Xh.9 8 y p d i i d B 8X0XpX8XrXtXzXkXaXfXW - !.eX@X~./.eXqX= | /.7.7 0.8X+XoX8X",
"S /.@X6.*XoX8XE.E.*XE.~.y a % ^.8X*X^.yX| 9.iX X1X0Xi v I.&XP.6X+XOXx ^.oX8XtXfX/./.E.k.- c c C Q.m.yX-XqXi V o.g.3.g.v % o.l.x ",
"E. Xj.J.@X@X^.@XU.~. X2 J.I.}.x.y 2 2 i 3X9X9X3X}.0Xy |.2X XdX9X0X9XaXt 1 - - 1 % f E A 4 tXtX4X2 q Q % B {.3XaX8XY.3X6X=X0.! y ",
"q.x.c.~.g.=X/.^.!.c.i g.OX2XpXoX3X.X8 }.+XT.9XOXY.9X6 P.g.9XrX2XiXpXc h.H.9.h.d.P.T.T.2X6 8X6XtXtX4 d ~.rXaXfX4X8XfXaX&XdXtX^.R ",
"k.j.j.f.=X@XE./.q.- h.&X4XgX2XR.+XpX1 P.H..X{..XT.dXc {.OX}.dXdXOX*X$ Y..X3X9XT.OXT.OX9X1 8X9XpXjXh.f.tXlXgXlXzXaXkXgX4XfXkXkXrX",
"j. XE.XX`.$X$Xo.% z..XrX9X3X}.9X*Xc.B R.T.h.P.T.J.3X5.% % - 1 - 3 8 $ 2XH.g.$X9X4X1X3X5X9 oXpX4XtX4X XzXfXaXzXOXaXzXsXOX0XgXzXzX",
"q l.c.@Xk.l.:.2 A }.aX5XaXpXJ.8XoXk } 9X0X3X3XOXT.OXd.p OXaXkXkX2X3.1 h.H.{.T..X}.2X2X^.9 E 8X8X^.d /.:.fXgXoXdXgXdXdX6XzXzXgXzX",
"7 0 P [ P Z y v B rX8X0X5X9XrXaXY.6 2 &X6X2X3X.XOX}.t g.|.9XOXP.2X0X8 |.J.T.T.Y.K.Y.} 9 X.OX5.h.3.{ y c.qXzXzXgXpX9XsX0XiXdXrX~.",
"f.OXc - 2 3X3X9Xv K.&X0X5XT.9X@X, |.R.c OX|.2X|.9XY.p I.5X9XsXdXgXpX9X5.R.T.H.OXh.% } 2X3X|.oX|.2X.X|.o E.@XrXtXaX*XtXE.9.k.W @ ",
"pXsX5XR.8 OXsX9XdXt { oX0X8X}.s .X1X6X0XV ~.R..X1Xd.}.*X2X9XkXzX.XpXJ.# J.{.9.9 2 Y.}.0X2X4X3X3XsXpX4X, # + s r k / ....~ 2 = 3 ",
"3X3X2X3Xp pXgXkX0X8X1 % 2 4 1 s 2X1X0XdXy , j.I.Y.1 6XpXP.+X9XgX4X3XV % 3 # i c 8 OX3X3X2X4XsXsX9XrX3X3 y { 5.} 3.X.v 7 7 ! f.u ",
"sXpX6X3Xh.c.4X@X8X9 d ! 1XT.p 9..X4.I.6Xy B d.{ x 7  XgXdX6XrX4XOXz., { 5.h.L.1Xt OX2X9X2X|.iXiX&X.Xf.y d.4.R.1XH.h.|.B }  Xj.q.",
"pXpX5XpXK.% 3 7 E Y.|.6 OX=X~.~.K.7X X+ H.<X<X2XI.p ' 7X3X7X&X&Xz.; 3.I.|.|.5X0X~.XXOXrX1X6XrXtX X<X2XE P.R.4.P.h.P.L.B I.I.XX#X",
"OX.XOXrXf.d d.|.9X3X&X.X1 d T x , $ , T P.H.|..X.X{., ~.XX2XiX~.; T |.OX2X&X6XpX9.9.&XiX9X6XsX|.6X3XT v |.P.I.|.3.L.L., x.=X).k.",
"C T.R.&Xd Y.{.XXoX8X7X.XV q.h.I.A 6 7 P.{.d..X|.R.4Xv # 3 7 @ 6 8 3.1X3X3X2X XQ.+ @ @X XrXsX9X6X7X~.7 2 9.|.R.R.d.R.P., /.Q.Q.U.",
"2 @ # a , < <X X&X2X&XG 4.9.~.4.H.! 7 I.H.<X.X{.|..XI.a v R.2XOX<X! ~.&X3X&X~., t 1 f.&XrXyX4Xk.k.R h.A 2 h.I.R.L.L.H.$  XQ.Q.).",
"p 9.h.h.3.3.< u k.k.F u x.U.x.x.K.H.7 H.|.R.2X{.|.2X{.t {.4X4XOX.X8 ..c.!.7., 3.I.x 2 :.,.=.>.r.u < .XP.T . |.1XR.5XL.% &XQ.l.Q.",
"3.f.3.0.h.3.d.H.< < 4.P.K.H.K.~.K.K.{ ^.{.6X5X<X5X{.X.} 9X=X.X4X<X3., % , x 3.<XpX2Xd % 6.l.6.u d 6 &XOXI.= > 3.X.T R # ~.r.k.M.",
"f.}.0.~.I.d.d.P.4.6 x. XW.XXU.#X~.q.3.. f.{.3XI.iX&X, 2X7X6X3X.X5X.Xh., 3.h.6X6X.X&X} 2 y x d.I.H.u 4.~.|.i = = % $ 7 p z.#XE.E."
};
