/* XPM */
static char *_546_a7b274cf9c8c85b01343f3c2716198bbba121efe5c0629f7d8235d1b5a6a208d[] = {
/* columns rows colors chars-per-pixel */
"64 64 255 2 ",
"   c #030202",
".  c #0B0202",
"X  c #070905",
"o  c #02040A",
"O  c #0B050A",
"+  c #030A0B",
"@  c #0B0B0B",
"#  c #130302",
"$  c #1B0302",
"%  c #160A09",
"&  c #12100F",
"*  c #030C13",
"=  c #070B15",
"-  c #071518",
";  c #161818",
":  c #230202",
">  c #280807",
",  c #360908",
"<  c #2C120D",
"1  c #38170A",
"2  c #271815",
"3  c #381616",
"4  c #2E2116",
"5  c #39281B",
"6  c #091923",
"7  c #151D23",
"8  c #2B1C21",
"9  c #08242D",
"0  c #182428",
"q  c #182C36",
"w  c #19343B",
"e  c #26262B",
"r  c #3B2A27",
"t  c #2F2C30",
"y  c #293639",
"u  c #35383A",
"i  c #440A06",
"p  c #580D0C",
"a  c #491906",
"s  c #541B06",
"d  c #481B18",
"f  c #6D120F",
"g  c #582608",
"h  c #492719",
"j  c #532D13",
"k  c #572817",
"l  c #672909",
"z  c #742C08",
"x  c #6C310D",
"c  c #77330E",
"v  c #662D15",
"b  c #75261A",
"n  c #683314",
"m  c #733312",
"M  c #7B3A14",
"N  c #753818",
"B  c #7C3E1B",
"V  c #4F1921",
"C  c #671F23",
"Z  c #492A27",
"A  c #582925",
"S  c #4E332D",
"D  c #672924",
"F  c #683A24",
"G  c #793A27",
"H  c #6E3130",
"J  c #773834",
"K  c #3E403A",
"L  c #7B411C",
"P  c #56463A",
"I  c #784425",
"U  c #6F4732",
"Y  c #1C3B44",
"T  c #263B44",
"R  c #383B43",
"E  c #293D51",
"W  c #443A48",
"Q  c #1B4651",
"!  c #364649",
"~  c #2E4B53",
"^  c #294854",
"/  c #3B5458",
"(  c #1D5F6B",
")  c #2F5866",
"_  c #30656F",
"`  c #376C78",
"'  c #3A747B",
"]  c #504E4D",
"[  c #485556",
"{  c #565F5E",
"}  c #705450",
"|  c #706758",
" . c #485C67",
".. c #585C66",
"X. c #476469",
"o. c #596568",
"O. c #4D6B76",
"+. c #46747C",
"@. c #547478",
"#. c #6D6C6E",
"$. c #677778",
"%. c #797B7A",
"&. c #8C1715",
"*. c #AC1112",
"=. c #8F3415",
"-. c #833D17",
";. c #B3241B",
":. c #B11E28",
">. c #922D2A",
",. c #853728",
"<. c #873936",
"1. c #963B36",
"2. c #B0322E",
"3. c #D0291A",
"4. c #E81C24",
"5. c #CD2F29",
"6. c #C73A36",
"7. c #E72B29",
"8. c #EC312E",
"9. c #83421C",
"0. c #8B471B",
"q. c #8B441C",
"w. c #91471A",
"e. c #B24D09",
"r. c #844422",
"t. c #8A4622",
"y. c #844925",
"u. c #8C4A24",
"i. c #854C2C",
"p. c #8C4D2A",
"a. c #934C25",
"s. c #934D2A",
"d. c #984A28",
"f. c #8A5126",
"g. c #8D502B",
"h. c #94522C",
"j. c #985428",
"k. c #9A542D",
"l. c #874734",
"z. c #954536",
"x. c #8D5334",
"c. c #8B5739",
"v. c #945432",
"b. c #9B5532",
"n. c #9C5A34",
"m. c #955938",
"M. c #9C5C3A",
"N. c #A3562B",
"B. c #A94638",
"V. c #A35C34",
"C. c #A95C37",
"Z. c #A35D39",
"A. c #B55130",
"S. c #9C613D",
"D. c #A5623C",
"F. c #A96439",
"G. c #AB643C",
"H. c #B2653D",
"J. c #B5693C",
"K. c #BC703D",
"L. c #C34435",
"P. c #D34E37",
"I. c #D27A3F",
"U. c #8F3E42",
"Y. c #CB3A41",
"T. c #925448",
"R. c #A9574A",
"E. c #97674F",
"W. c #A46441",
"Q. c #AC6542",
"!. c #A56846",
"~. c #AD6A44",
"^. c #AC6C4A",
"/. c #AF6E4F",
"(. c #B26643",
"). c #B36B43",
"_. c #B96D45",
"`. c #B46D4A",
"'. c #B96E4A",
"]. c #B57145",
"[. c #BB7344",
"{. c #B4724B",
"}. c #BC744B",
"|. c #B87A4D",
" X c #B97853",
".X c #90726A",
"XX c #AE766A",
"oX c #CD4E47",
"OX c #E65D55",
"+X c #C57947",
"@X c #C2764C",
"#X c #C47B4C",
"$X c #D2724E",
"%X c #C47C52",
"&X c #C67A55",
"*X c #EC7051",
"=X c #D07769",
"-X c #74807E",
";X c #99836E",
":X c #B48F73",
">X c #D18656",
",X c #EE8E55",
"<X c #D28E6E",
"1X c #ED8A63",
"2X c #E89468",
"3X c #F0946E",
"4X c #D9A777",
"5X c #F0B179",
"6X c #2B7E89",
"7X c #387887",
"8X c #3C7B85",
"9X c #3C7D8C",
"0X c #3D7D92",
"qX c #467085",
"wX c #477885",
"eX c #437C8B",
"rX c #577C88",
"tX c #427E92",
"yX c #697B83",
"uX c #987F82",
"iX c #3A818A",
"pX c #3A8292",
"aX c #47828C",
"sX c #59858A",
"dX c #438292",
"fX c #598793",
"gX c #668688",
"hX c #748E91",
"jX c #679DA1",
"kX c #739BA4",
"lX c #8B8F8C",
"zX c #979996",
"xX c #B2948C",
"cX c #B8A694",
"vX c #9296A3",
"bX c #96B0B0",
"nX c #AFB0AC",
"mX c #CE9587",
"MX c #D0AB95",
"NX c #E8AB9C",
"BX c #F0B492",
"VX c #CFB6AF",
"CX c #F1CD94",
"ZX c #D2C6BB",
"AX c #F5D1AD",
"SX c #F8EAA8",
"DX c #FCEAB6",
"FX c #FAF7B7",
"GX c #9CC0C2",
"HX c #B7C9CC",
"JX c #CCCEC9",
"KX c #EFD2C6",
"LX c #F6ECCE",
"PX c #D5E8EE",
"IX c #F9F0E6",
/* pixels */
"_.F.~.l M.Z.Z.b.M.a.y.f.N h.~.(._.A.G.t.W.g n p.p.x {.Q.C.^.B N g.v.c.n v.b.u.d.t.B h.h.V.N.k.d.s.h.h.N.'.d.r.d.k.M.t.s.J._.0. X",
"d.M m k.k.F.).).9.V.k.L g v.c a.C.H.F.C.C.z Z.s.m.i.l G B p.u.u.b.z.v m.b.k.-.b.Z.v.n.j.C.N.u.9.t.9.c a.C.k.k.s.s.g.n.{.s.k.a.z ",
"b.M L ).).|.|.).%X`.D.v.L n D.9.).N.F.G.V.z `.Q.D.l i.i.r.v.Q. X`.(.m  X@X`. X(.F.F.c c ).).h.9.p.m t.h.V.b.a.s.s.r.r.g.q.H.K.).",
"v.L 9.h.}.J._.}.q.H.(.u.L g n.M.V.q.a.M s.x  XW.l i.H ZXHXqX9X' iX8XPXGXJXU /.}.@X_.V.k.[.q.C.J.G.9.r.u.N.H.F.p.r.u.r.f.k.(.[.w.",
"G h.m.v.k.a.%X&X).n.|.D.n g I S.Q.G.h.Q.u.g k s hX7X8XwXeXpX9X_ 7XeX9 eX7X` ' HXE.~.].|.[.2X#X+X}.J.-.h.'.#X].q.m i.B 9.m.V.C.w.",
"b.u.0.h.s.Q.[.J.H.D.z M.c.g c.J.F. XC.).D.g hXw ( 8XdX) 9X6 dXpX7XiXeX9XrXQ wX9XwXhXU f.[.+XK.[.'.H.a.j.J.>XK.K.F.k.y.p.u.F.w.G.",
"{.|.k.D.-.s.a.b.k.B x f.y.g ^.F.J.[.J.!.ZX' iX' +.8XeXq @., /.&XXXE.XX#.q +.tXO.fX8X' @.D.>X[.x ).).G.H.J.+X>X>X+X}.Q.u.a.-.#X#X",
"%X].>X].`.n.N x B L F.k.f.l n F.@X#X^.8 pX8X8XiX; ] >X#   . O .   O   o i =X$.; ^ pXiX/ bXh N.x.M.N.C.H.G.K.+XK.@X&X@XN.w.N.K.+X",
"|.}.].Z.~.~.m.c.l W.Q.Z.v.v v `.C.G.' wXY 9XeX@.XX. % ; ! ! o.:Xb..X..u ]     H o.iXaXyXwXeXS 9.f.j.k.Z.Z.b.t.G.0.#XK.G.J.H.#X+X",
"G.].D.}.~.F.c.n i.|.%X_.(.m g v T.7X9XeXwX! =X# o ] } *X,X,XBX< :XCX,X$X*Xx.R .   =Xy hX6XeX( .X9.s.d.b.Z.V.c Z.m.-.).Z.V.%XN.N.",
"].}.~.).S.I n g v.q.G.%X_.].n s 9X0XjXeXiX} # u H U 5XZ   X   nX#   X . } CXT.H X   X P iX9X8X9XD g.d.k.q.Q.~.B ,.L S.f.k.V.[.#X",
"C.V.!.!.s g N m.I Z.}.C.>X].XXnX..8X9X..R.  5 OX5X    2   2 $ 4 < $   O   . X 5X=X]     O ' 9XqXkXg.x ,.d.M p.M.g.0.g.h.9.M G.c ",
"W.W.c.g I m.m.p.v.`.V.Q.#X+X.X^ 9XvXt c.    Q.BX+ . . S i h b &.,.C i s A o . . MX4X[ @ J X  .eX' HXy.B h.r. XM.h.V.t.m f.u.V.m ",
"g l g a W.j.h.m.N l.Z.'.@X@XjX7XeX0X.X  u *XxX  ] # , b *Xi f p f p l.*XC : # O   P *X| @ < w Q @.O F -.D.s.Z.).|.).j.p.p.a.n.V.",
"m.m.y.I W.b.v.B I g.(.}. XnX' - wXwX. . *XCXo   i V OXf 3.BX4.BX2.;.A.(.BXA., V     U *X  . | iXdX7XJXh.Z.k.(.@X_._.C.h.r.h.j.F.",
"i.l z b.v.~.n.g.v.D.Q.!.b.0XQ _ wX} . S j ; . : A &X2.L.AX4.BXCX2XFXDXBXBX1.>Xp > . o h U O E.aX0X9X9XF b.Z.'.@X#X@X}.N.h.M.n.t.",
"L M.G.Q.G.x Z.Q.s.b.g.y.a pXtXeXrXh   OXX   X , oXNXNX2X4.SX>X>X3.P.CXSXBX3X, OXV $ . # *X; . $.iX0XpX%.j.s.-.j.>X@Xj.F.k.9.m.r.",
").~.D.V.h.n.{.}.(.-.x g JX' 7 _ #.o X.E.  # =XB.NXAXOX2XP.d.>XA.SX4.7.7.;.:.f , B.}   # cXW o .X/ vX7XkXL f.).J.}.}.}.[.D.n.v.v.",
"f.].H.s.m M.`.@Xq.v.p.f.7XwX0XpXfX. | cX. O 2 R.AXAX4X3.CX<XBXCX5Xj.AX7.CXA.&.>.,.: $ O :XJ o xX+.eX' 8Xa g ^.0.}.{. X!.m.i.G j ",
"M ).N.h.u.c ).'.).v.0.9.w _ qX+.vXo XX@ .XE.1.V AX4XFX7.3X$XF.LXDX4X3.J.$XFXOX>.U.,..X. . XXO 1 aX8XfX  U L a g a s a I a a j I ",
"M.).V.M t.a.z }._.b.9.I wX+.wXkX= O  X  { d OX:.2X7.SX5.DX3.:XLXLXCXFX7.;.>X;.2.oXOXD O . 3X=   kXaX7XQ a v.m.I c.l  X|.|.n.^.L ",
"D.F.N.t.D._.G.s.v `.a.v.6 7 . w + + T.    3 R.:.NX$X<XBX8.>XCXLXLXCXLX7.7.4XBX2.OXl.3   . (.o o o.= o 0 < a.L x h.F.[.w.a.'.}.Z.",
"v.a.).F.}.G.(.C. X).S @ * * = = T 6 q zX  2 1 2.:.AX6.FXk.S.FXFX<X=.CX4.3.$X2.2.L., ; . ] R 7 q 6 6 * + + e L I L v.s.).|.].].`.",
"u.F.].[.>XG.=.&X`.|.          o     . =X. < > 2.>.*.$XFXFXCX,XFX+XSXSX7.3X2.&.;.6.: ; . BX.     .         X a f.v.v.Q.G.}.[.).[.",
"p.Z.0.N.J.[.M. X%X_.JXq 6 o.7 7 + r KX. xXW , 2.2.*.<X7.7.5.8.8.3.>X7.A.CX5.f :.L.>  .:X$ cX&   = * R q y JXb.h.m 0.n.C.).F.C.a.",
"B m ~.).|.G.].h.M.D.S.; ..q 0 q 0 o.} O 2 t : .X1.&.;.AXSXSXSXSXK.2XSXCXL.5.f :.MX: ..$ O zXvX0 = y ! ..7 v.V.d.].s.V.s.h.-.V.G.",
"L I ~.).).C.r.M.L n g lXe o y ! O % , } . t O T.D &.oX*.3.A.P.OXCX4XH.*.5.6.p b T.. = . W S $ X $.7   ; HXH.}.&X}.}.].u.h.9.k.Z.",
"M.f.l k.D.D.g L g N |.!.HX[ T y u zX5   o Z . < Z D 2.:.P.P.CXBX;.7.*.f 6.6.] } . $ 8     h VX{ ~ [ [ zXS }.|.#X>X@X{.h.).s.r.p.",
"x !.`.M.m l B S.F.].|./.K   o o + gX% Z o Z # >.H 3 5.2.f Y.:.B.H 6.6.f 6.6.< U.<.: 8 . %   #.= O     R 5 j.J.>X#XK.>X~.F.}.p.r.",
"m 9.h.(.`.Z.u.Z.C.}.|.{.wXw e ~ q :Xs . o Z $ ,.<.C 6.2.p Y.6.B.b 5.Y.f 6.6.d 1.z.> r .   =XmXy ! - o aXj ].].|.>Xw.].J.G. Xn.p.",
"f.B V.M '.~.~.z G.~.>XS.dXQ ^ wXwX.X*X. o S $ >.U.C 6.2.p 1.mX2.H KXmXf 6.6.p >.1.$ u . . ,XxX' wXrXy eX> g I n.J.|.M !.y.g m.f.",
"m.g W.x.Q.-.W.n.~.{.^.!.eX) 7X7XtX<X>X. o ] % V <.C 6.2.p 2.C z.v >.>.i L.2.i C S @ [ . @ 3XmXtX0XeXfXaX5 I l j T.s a g v k g g ",
"m.f.m.G a n n s k k s a eX9XtX0XeXh ,X  . t % %.d V B.2.i oX2.z.D 6.Y., Y.2.1 , } > ^     ,XmXeXpXpXwX' h F.G.{.~.!.f.Q.Q.~.D.M.",
"D.h.9.n.L m.W./.u.W.T.U wXE = 0 e mX*X    &   Z .XZ 2.1.i L.VX<.D cXoX, 6.1.1 K .XO 7 O . ,XBX+.9X9X .  h }.].|.l G.Z.C.G.D.~.n.",
"D.b.u.G f.h.m k.).W.B l.wX+.7X^ ' bXCX  | r # O   % XX>.p oXZ H D D oXi 1.G u t & . t     .XxXkXGXgX+.bXd F.C._.w.C._.J.G.J.J.F.",
"~.h.h.p.u.p.t.M.D.!.v.l.qX6 ) _ o X =XO   t % D 3   O S XX2.<.<.A d R.:XJ     V J > t     1XxX_ 7XaXsX7X1 G.s.~.n.).(.G.n.n.h.g.",
"F.F.n.m 9.L N ,.Z.b.g.I 7XrXrX9 0XMXD O   7 > ,.H 3 J o % b k z.A D U.$   U., D U.% q   . 1XO hXtX` [ dX5 J.(.G.].].V.D.L x M.M ",
"@XF.D.L n.m i.h.V.G.V.T./ gX7XqXdXmX2XX   nXO <.H 3 1.H 3 > S <.A 3 : , G R., D J # vX  . 1XVXqX0X0XfXwXj ~.z j.).F.G.C.G.l Z.|.",
"+X+X+X#X].h.u.h.h.Z.Q.m.bX$.o wX+.mX2X    u # xXW d B.H 3 ] } z.k } ] : <.R.3 ] VX2 /     1XmXO.O.^ O.zXh ^.F.Q.G.~.J.F.M l  Xu.",
"K.#X+X+X@X).r.u.|.&XF.g.O.6 _ pX9XlX X    o @ d ; Z 1.G < # Z <.Z h # $ H z.A ; A   O . nX<XMX0X0X9X(  .h {.).}.G.).k.f.l g n p.",
"j.[.+X+XJ.~.V.M 0.>X>X{.' _ 7X9X9X.X,XZ ] X $ . ~ ] mX} V <.d <.k p R., xX=X! R O   & ; @ 2XMX7XiXiXdX' d G.F.C.}.Q.b.d.B ,.p.F.",
"J.J.j.s.].G.).}.(.+X2X>X= R 9 X.9 S : u VXIX# D < .   % : U.<.l.V T.i A } . . r d : # IXzX=XMXrXwXX.* - h ^.b.F.Z.B N -.r.y.u.C.",
"9.n.b.y.x h.Q.G.}.[.[.~._ ` q Q iXAX1Xr IX| % A H 3 C 8   3 E.<.A E.A   # U.< J k % KXxX  <XxX8X6 ~ pXiX1 h.j.9.x.G D.h.M.L -.!.",
"f.g.r.i.m.n.d.l V.`.G.m.7XwX` 9XpX<X1X% LXO & KXD d 1.J , , O l.A : r % C 1.> H JXLXLXzX~ 2XmX9XT - 7X6Xh !.n.n.l m.k.V.n.r.N x.",
"F.M.9.m ,.g.t.l b.V.m v 7XrXpXdX7XmXA.yXuX<XNXVXlXIX% l.d b D <.h >.H , b 1.% A IX| JXIXW 1XNXeX= ) eX' Z ].S.I l Z.(.C.n.v.s.b.",
"J.G.D.F.j.r.r.M.M W.m.c.wX+.dXrXwX#.A.o mX7 lXLXLXxXKX] A 1.H l.d 1.,., H IXMXLX<XLX> uX] 3XmXqX$./ 0 ! j M ~.a n Q.C.`.Q.).N.k.",
").].@X].b.s.B c p.x b x.+ 2   * y @ . o yXIXVXIX* cXh AXcXT.,.U h 1.T.. r DX2 KXIX4XAX= - MX: o +   8 / h B E.s m.M.(.G.}.G.'.(.",
"w.}.&X}.|.Z.t.p.9.v.Q.!.eX$.aXwXeXhX3XO = VX) uX;X2 NXPX<XBXS ; % JXcXBXE.T.IXS AX= KXPX= 1X:XeX0X7X) 7Xh g a S.m D._.(.'._.C.c ",
"z #X-.[.j.).b.M M.G.G. XaXaXeX) 0X$.3XX o.KX@ rXMXVXLX3 ZXAX} cX:X>X4 MX4 cXKXMX..= MXy u *X;XpX9X9XqX7X< I !.g.v.m.n.~._.(.w.G.",
"[.n.J.J.F.}.V.p.-.V.J.D.fX' +.eX8X7 .X  R 0 2 O = e ] ] & 4 r r e 5 ; & 4 t o   2 # 7 - . ,X:XiXaX= 6 8X1 n.D.k.M.L m V.). XQ.Z.",
"J.J.K.F.`.{.v.v.9.D.).J.  ^ 9XgXo rXcX. o ^ gXE 7XvX..yXe   u @.~ X ! ' rX@.} ..7  ...    2X.XaX' !   ^ 5 F.s.V.n.g n.F.F.Z.`.s ",
";X>X{. Xa a a g I x.F.>Xo.X.X.$.#.hX. sX@.hXrXgXsX%.#.$.hXlXkXgX$.X.@.[ S 0 lXbXhXhXhX$.]   ZXGX! @.O.o.h d.)._.F.G.9.f.p.N l ^.",
"g g g g v W.M.m.n v g U   .     R q & 0 ; = X . e O X % % X @ . - ; ; & % @ X X   @ ; e e + r X   0 y * [ h.`.l Q.`.G.x.c.N v.D.",
"D.m E.L ).Q.C.c v.^.c.  o * - 6 0 ; + y - ] e @./ = O.aXiXy * T X Y X     -   * +.wXqX@.w w + - + * 0 9 - 1 u.t.`.|.a.p.,.M v.k.",
"j.g.N y.^.,.c r.D.].zXT / * q O     ; y ! ] t ! ] #.lXnXbXzXbXgXo.lXzX;X%.lXlXK o.7 { u 0 *   X / ~ Y ^ X.$.y.u.D.].H.t.s.t.n.Q.",
"_.n.I M.p.`.k.9.~.].E.q -     o.  q @.` _ wX= ' - . w aXo * w [     * + +   X u &     q - 6 ~   - - X + + | -.h.F.). XV.q.-.r.Z.",
"_.b.r.b.W.M.b.9.j.q.)._.!.!.!.M.  { [ hX{ HX$.zXX nXlXcXzXZXZX#.lXJXJXnX4 zXnXnXu vXnXnX-Xo.] X n c.W.p.(.d.M u.q.j._.K.+Xq.0.V.",
"`.C.a.r.V.v.M h.~.s.t.G.).)._.C.wX9 / R ^ / +.(   - ^ - X aXiXaX$.@ 0 ~ - X + X hXo - - X.+.9 aXc.9.h.j.C.k.).`.].#Xz ,X$X>Xu.s.",
"(.G.).n.-.-.V.D. XF.}.J.).`.Q.9.o X       . . o .       X       X   X     X @ X o   X @ 8   @ X U G.j.M N._.'.[.0.K.,Xe.,XH.j.b.",
"G.G.Q.s.-.Q.G.d.).-.j.F.C.C.F.9X' - jXiXiX+.7Xo ' ' ) * iXaX9 _     u +       [ ] lXbX9 - wXeX+.sXP L p.).C.N.[.g #Xe.I.w.@Xa.b.",
"Q.^.s.t.}. X%Xq.V.).G._.V.(.O + ! - = q o o *   + + + w o * Y 6           / -     = q *       ; O o.j L ~. X}.H.e.>X>X>X>X#Xn.h.",
"m r.b C.H.(.`.-.(.H.H.-.N.Q.k j 1 k j k 1 F F I I U I F n F U n j F k j I n U i.x.I I F F F j j a j I v.m ).Q.H.K.=.l c.x L c.c.",
"u.p.~.F.).u.).`.-._.H.Q.!.v.B i.n ~.{.k.s.k.F.V.C.Q.0.f.S.~.n.h.N.v.p.I n.D.J.z ).H.H.F.z n.p.h.x.g.l g.L N !.{.N.].I g n j j a ",
"L L C.V.N.t.G.).Z.(.n.n.L N x.I v m ].{.Z.M v.p.D.-.r.y.l {.D.G.F.v.x.c.v.r.F.k.(.J.Q.G.D.b.G.u.M.p.N B m.S.{.m.a N U i.>XF.].~."
};
