/* XPM */
static char *_1671_85487fb3226b92312f3154384637521cc918770b4353cef8f5fb7e2160c8be5d[] = {
/* columns rows colors chars-per-pixel */
"64 64 255 2 ",
"   c #010102",
".  c #0A0203",
"X  c #01010B",
"o  c #08060A",
"O  c #170406",
"+  c #020312",
"@  c #02031B",
"#  c #060A18",
"$  c #130716",
"%  c #18161A",
"&  c #280606",
"*  c #30100E",
"=  c #371919",
"-  c #352119",
";  c #040827",
":  c #16172D",
">  c #020933",
",  c #071638",
"<  c #2E132C",
"1  c #122437",
"2  c #312630",
"3  c #471602",
"4  c #4B1C03",
"5  c #531C03",
"6  c #561D05",
"7  c #4E1210",
"8  c #4C2309",
"9  c #542204",
"0  c #5B2203",
"q  c #552309",
"w  c #5B2708",
"e  c #5D2B0C",
"r  c #4E2811",
"t  c #582914",
"y  c #5B3314",
"u  c #632706",
"i  c #6D2A06",
"p  c #642C0B",
"a  c #6C2D0C",
"s  c #742C08",
"d  c #6F300F",
"f  c #75330D",
"g  c #7B340D",
"h  c #662E13",
"j  c #673517",
"k  c #6B3213",
"l  c #733412",
"z  c #7B3513",
"x  c #743915",
"c  c #7B3B14",
"v  c #73361A",
"b  c #743B1B",
"n  c #7C3D1B",
"m  c #561C20",
"M  c #503232",
"N  c #683B24",
"B  c #763E24",
"V  c #7C3E21",
"C  c #6D3134",
"Z  c #60441F",
"A  c #77411B",
"S  c #7C411D",
"D  c #564333",
"F  c #7D4322",
"G  c #794627",
"H  c #674736",
"J  c #744B32",
"K  c #794D36",
"L  c #031947",
"P  c #171A4A",
"I  c #081857",
"U  c #162952",
"Y  c #182857",
"T  c #282C45",
"R  c #2B3555",
"E  c #0F1C62",
"W  c #142766",
"Q  c #0D3374",
"!  c #24366B",
"~  c #5F3945",
"^  c #3B4953",
"/  c #194068",
"(  c #3A4965",
")  c #35496F",
"_  c #554751",
"`  c #6E5150",
"'  c #4C516C",
"]  c #6A5866",
"[  c #576676",
"{  c #726D6D",
"}  c #666874",
"|  c #9B1C1C",
" . c #942C10",
".. c #853A17",
"X. c #823C14",
"o. c #823E1A",
"O. c #A6281B",
"+. c #883826",
"@. c #B1342A",
"#. c #CF3527",
"$. c #83421D",
"%. c #8B441D",
"&. c #8B491C",
"*. c #91471B",
"=. c #B24D09",
"-. c #844422",
";. c #8B4622",
":. c #854A23",
">. c #8C4A24",
",. c #874629",
"<. c #854C2C",
"1. c #8C4D2A",
"2. c #934C25",
"3. c #924D2A",
"4. c #984C28",
"5. c #885129",
"6. c #8D512C",
"7. c #94522C",
"8. c #995629",
"9. c #9A542D",
"0. c #894C32",
"q. c #954B35",
"w. c #8D5233",
"e. c #895738",
"r. c #945432",
"t. c #9B5532",
"y. c #955A36",
"u. c #9C5A34",
"i. c #935539",
"p. c #955B3B",
"a. c #9C5C3A",
"s. c #A2582C",
"d. c #A75933",
"f. c #A35C34",
"g. c #A35D3A",
"h. c #AA5E3B",
"j. c #B15832",
"k. c #84603E",
"l. c #9C623E",
"z. c #9E683E",
"x. c #A56036",
"c. c #AA6236",
"v. c #A4623C",
"b. c #AB643C",
"n. c #A7693C",
"m. c #AB693D",
"M. c #B1653D",
"N. c #B76F3A",
"B. c #B36A3D",
"V. c #B96B39",
"C. c #D4452A",
"Z. c #C9723B",
"A. c #925847",
"S. c #AF5041",
"D. c #9D6443",
"F. c #9A6647",
"G. c #866355",
"H. c #A56442",
"J. c #AC6542",
"K. c #A56B44",
"L. c #AD6A43",
"P. c #A6694B",
"I. c #AC6D4A",
"U. c #B26643",
"Y. c #B36B43",
"T. c #B96E45",
"R. c #B06748",
"E. c #B46D4A",
"W. c #B96E49",
"Q. c #AD714B",
"!. c #B47145",
"~. c #BB7344",
"^. c #B5724B",
"/. c #BC734B",
"(. c #BC794A",
"). c #A76D51",
"_. c #AB7657",
"`. c #B57552",
"'. c #BC7551",
"]. c #B77A56",
"[. c #BC7A52",
"{. c #996A70",
"}. c #C27544",
"|. c #C87945",
" X c #C1764C",
".X c #C47B4C",
"XX c #CA7C4B",
"oX c #C47C52",
"OX c #C67B54",
"+X c #D17F50",
"@X c #CC6662",
"#X c #B5846A",
"$X c #CB8255",
"%X c #D38851",
"&X c #D68857",
"*X c #E98C53",
"=X c #D48D63",
"-X c #123194",
";X c #164D8A",
":X c #2F518E",
">X c #174CAC",
",X c #2B51AF",
"<X c #256BA3",
"1X c #4D6C8E",
"2X c #64758F",
"3X c #4E6EB4",
"4X c #134ECC",
"5X c #1668CF",
"6X c #3474CF",
"7X c #0A5FF1",
"8X c #1375EF",
"9X c #2574EE",
"0X c #5074C9",
"qX c #907F81",
"wX c #398EB9",
"eX c #5F95AA",
"rX c #6D8CB4",
"tX c #2C8AD9",
"yX c #2DA1D5",
"uX c #1390F2",
"iX c #2F8FEF",
"pX c #14AFFC",
"aX c #2EA6FB",
"sX c #6E96CB",
"dX c #4F92EE",
"fX c #599EE1",
"gX c #6E99EC",
"hX c #70B0EB",
"jX c #2ADBF9",
"kX c #53DDFA",
"lX c #74CCFD",
"zX c #8F8E93",
"xX c #8A97A7",
"cX c #8D97AF",
"vX c #B59DA6",
"bX c #93A7B8",
"nX c #B2ABB1",
"mX c #DFA49F",
"MX c #CFC5B9",
"NX c #99B1CF",
"BX c #A9B9D0",
"VX c #8AAEE2",
"CX c #C6B1C0",
"ZX c #B1C6D3",
"AX c #99D9F7",
"SX c #ACCAE6",
"DX c #BCF3FE",
"FX c #CBCDD5",
"GX c #C1D8EB",
"HX c #D2EBF6",
"JX c #E7E7EC",
"KX c #EBF9FB",
"LX c #F4FDFE",
"PX c #F9F8F8",
"IX c #FCFCFD",
/* pixels */
"T.c.L.u a.g.g.t.a.2.:.5.v 7.L.U.U.j.M.;.g.0 k 1.<.k ^.H.[ Q.A x 5.r.i.k 7.t.>.3.;.S 6.9.f.s.9.2.3.9.7.t.W.4.%.4.t.u.>.2.Y.T.*.'.",
"4.c l 9.t.x.Y.Y.$.f.7.F p 6.g 2.M.M.h.h.h.i g.t.y.>.1XjXjXyXq.>.t.t.h r.9.9.c u.v.7.8.9.h.9.>.&.;.o.g 2.b.4.9.1.3.1.u.^.2.9.9.i ",
"9.c S Y.W.(./.!..XW.g.r.A j v.$.Y.s.x.B.f.s Y.Y.K.- jXjXT NXW XXE.U.p [.OX/./.R.v.b.g g T.Y.7.$.1.l ;.7.d.t.2.3.3.-.-.6.%.M.B.Y.",
"r.S -.7.W.B.!.^.&.M.U.>.A 9 a.u.u.*.2.c 9.h ].a.w sXtX1 < ] Y !.R.g.0 :.'././.(./.W.d.8.~.%.d.B.v.&.-.;.s.M.b.,.-.>.-.5.9.U.~.*.",
"V r.y.7.9.2..X$XY.u.(.f.b e F l.H.b.9.v.:.w e 9 y.tX^ 2 O vX  H l l j l J.~.U.c.U.B.U. X$X=XXX(.~.Y.o.3.W..X!.&.l >.b $.a.d.c.*.",
"r.>.>.7.3.J.~.B.B.H.s l.e.9 y.L.c. Xh.R.v.9 w p.n.GX2 {.PXLX% P q D.A V H.J.E.Y.2.2.8.*.}.}.N.(.W.M.2.s.B.%XV.(.x.t.:.1.>.f.*.c.",
"E./.u.x.o.3.2.t.7.c i 6.:.5 K.c.T.!.Y.J.<.h :.r.H X ] IX_ IXo X K.-.F p.H.X.9.R.-.$.&.2.c..X~.i Y.U.b.c.V.|.&X%X}.(.J.>.*....X$X",
"oX!.$X!.W.u.z h b $.c.t.6.e k n. XoX!.S q Q.7. Xo =   PX{.IXM o P.a.o.H.P.L.g >.>.-.7.b.g.g t.6.g.s.h.M.b.T.}.N.oXOX Xd.&.s.N.|.",
"W.(.~.g.J.H.i.e.h v.U.g.r.h e `.x.b.!.e G x $X].>X  O   #   ` O o.E.a I.d d H.t.-.-.,.>.r.q.-.+.3.2.4.g.g.t.;.b.&.oXN.Y.M.M.XX}.",
"H.!.v./.U.n.y.j 0.(. XE.Y.l w h v.8.!.e A 2 BXNX9X8XM ; L     o q.3.t.1.H.h.h.t.F -.>.>.2.2.>.;.$.9.2.t.g.f.g g.i...L.f.d..Xd.s.",
"!./.L.R.H.G h e w.%.c.(.E.E.h 6 Q.Q.c.8 y FXJXJXBX9X5X>XkX1X; + H ;.1.V a.h.g.1.S >.1.3.W.Y.g.g.o.7.9.9.%.J.L.n o.S v.6.7.t.~..X",
"h.f.L.K.9 4 b p.-.v.'.h.OXU.E.h e F.w e.JXLXKXZXsX; 4X-X8X>X5X7X+ K V 0.r.3.s.s.g.&.$.7.U.W.T./.8.2.i +.2.z 1.a.3.-.6.7.&.c b.g ",
"H.l.y.0 G y.r.1.y.I.f.M.OXXXY.n.A k y D HXSXDXL sX1XP ! : >XW > T . o.<.i f.&X$XoXY.m.M.R.~.B.M.~.t.$.c 7.-.`.a.7.f.;.l >.>.x.l ",
"w p e 4 D.8.9.y.b 1.g.W.}.}..X8.v.H.N O # zX[ , 1XX : _ ZX1XE ,XX   v.n >.g +XV.s Y.M.~.s W...M.t.W.2.$.b.3.v.Y.(.U.9.>.6.>.s.f.",
"i.p.,.V H.9.r.b ,.<.R./.(.!.H.<.y.D.G M LXrXSX    + # LXIXZX] eX' ; z.7.c !.c.=X}.%X%XV.~.b.Y.~.B.B.&.8.u.t.U.}./.B.f.7.$.9.9.v.",
"<.p a r.t.L.u.3.w.v.g.P.i.3 4 8 q r t { KX:X@     : ZXLXPXJXbXbX1XzXl.x.c.|.}.&X%XXX4.~.~.XX|.V.N.b.6.:.t.h.W. XOX X(.u.3.u.a.>.",
"S u.H.U.b.a g.b.3.t.6.5.5 ).L.(.r.`.1.HX[         @ rXDXDXDX1XDXSXGXH.m.M.b.+XV..XY.J.a.m..X}.!.!.v.w.,.q.2.o.8.+X X4.c.s.$.p.F ",
"Y.B.c.x.3.a.E.(.M.o.h w 6.Y.~.g 2.$Xs.GX, rX    X Y dXdXlXlXhXZXdXVXy.>.3.U.b.M.T.OX6 r 9 Q.$X`.4 r 4 4 V 1.U.Y. X/. X/.v.t.r.r.",
"6.!.B.2.z a.E.'.%.r.1.5.&.u.7.Y. X/.N.HXR ; +   X L 0X,X,X6X:X1 Q ; q.,.a.4.U.E.J.h F y.y.5 3 3 <.E.I.i.0 w Q.%.(.^.].P.i.G G e ",
"l Y.s.7.>.g R.~.B.t.:.$.2.W.'.Y.oX~.A.; X +       W 3X+ W L cXHX: o G $.<.1.H.H.D.G y.-.r.w.N j I.U.;.t.7.S 4 9 3 4 4 B 4 3 y G ",
"l.Y.d.c -.2.s /.W.u.$.$.3.(.z ~.N.A.JX: Y +         P ' W NXVXgXW . e.G q 3 h G 4 p.z.x.y.-.V 1.2.W.M.U.9.u.y.G w.p ]./.`.t.I.G ",
"v.f.d.&.v.T.M.3.d E.>.r.1.a.L.u.$XF.T R :   . ~ C $ o P -X,X0X0X#   G q e.e.6 0.9 Q.>.X.6.S -.g.a.t...E.t.3.x p 7.m.!.*.3.W./.f.",
"9.2.Y.b./.b.U.h.[.Y.(.>.r.r.l.a.3.J R o R     o C C.@.m O.C.C.O.% X & e.K.u 1.i.6.b.b.Y.$.r.5.,.>.l 3.g.6.1.S <.A y.3.!./.!.T.Y.",
">.x.!. X.XB... XR.T.Y.R.4.a.6 k Q.C @ 2X    o FX$ m . 6 & O & & o % ] 5.i.>.3.u.m.Y.L.!.(.7.H.>.2.,.k k n -.d >.r.7.L.b./.~.Y.~.",
"3.g.&.s.Y.!.f./.[.!.!.L.7.y.x.t.Q.zXsXHX, O ] M < mXC ; < vX< o } . CX2 n a.7.H.E.OX..$X Xr.5 f.;.p.F :.,.9.t.3.c %.f.g.Y.v.h.2.",
"F d L.B.~.B.^.7.a.L.H.H.y.A a.g.^.zXsXAX; & mXj.  +.O X R $ M C 7   M T 0.l ;.L.9.8.J. X(.oX[.R.b.%.u y.r.g.f.2.Y.2.f.2.9.X.f.b.",
"A :.L.Y.Y.f.-.p.A j w t 9 4 q y 4 bXsXwXO 3 @X@.* | {.X T L BX< #   X   R i.-.v.!.Y.Y.~..X.X..~.(.l l 6.z m.(.+X(.'.!.>.1.%.9.g.",
"a.1.u 7.l.H.u A u x ].K.I.l.r.u ^.KXVX1X  & % % @.. : < : _ . | <   $   ' 3.a.t.c.s.~.~.d. XoX/.$.y.$.$.f.]./.oX$X X^.3.E.2.-.1.",
"k L.E.a.d a n v.n.Y.oXE./.J.9.f.F.HXgXcX  _ qX'.] $ # X + . #.C O   < ' , i.7.g.l.c.!.&.'.$X.XT.~.Y.t.u.v.9.b.$XXX~.oX!.b.E.2.-.",
"k $.t.J.E.f.>.f.f.(. X'.W.E.v.9.% 2X! 1XX vXmXmXmXnX+ + > | +.$ @.    xX  ` H.l k w.k 5 V Q.^.K.<.).G G K.^.!.}.%X*.~.L.m.[.y.1.",
":.n a.z W.J.R.f J.!.(.J.2.E.B.L.o KX/ + + ' qXmXvX_ Y + #.C @ 9XO S.: cX. ( Z.Y.K.G Z e.F.e 3 3 4 4 H 9 3 9 G a.Y.^.l H.<.5 p.1.",
"l.0 v.y.H.$.v.u.J.!.`.Y.H.>.U.A.. ZXHX} X $ T } zX$ | #.O 9XI aX> +. .o X   : W.t.J.2.3.g.-.`.].w.l.w.1.D.F p q A.9 4 p p y q e ",
"y.1.p.V 6 h j 4 h t 4 3 8 e 8 eX. BX2XX   . A.O.O.O.A.  , tX;XaX:X:XC * >   o E.H.k A 7.Y.~./.W.v.l x z d.J.U.E.J.P.5.J.H.L.v.l.",
"f.7.$.y.n a.D.I.,.D.A.0.4 K.j yX  ' HX    X ; $ o > I ; L 5XuXaXtX;XE <   :Xo ,.c w.S $.J.W.M.B.f.9.;.>.R.W.T.^.i n.H.d.b.x.m.f.",
"v.u.3.n 1.9.z r.I.H.v q.l.>.).Q   # '     @ E Y -XW E > Q Q pXuXaXE 9X;   o j r.9.p 5.J.c f.s.b.H.;.:.,.2.v.h.T.&.d.W.M.B.Y.B.b.",
"L.7.r.,.>.,.,.a.H.H.r.r.2.2.D ;       X . ` ~ L ! L , , ;XL pX8XpXL iX-X  ' G.a.:.k :.2.8.X.b.b.f.s.6.>.;.c.3.L.f.U.T.c.t.9.7.6.",
"v.x.y.z S S x o.g.t.7.$.-.l wX            . O C @XY E @ <X> pX8XtX; tX4X. y o A.t.u >.>.u.c.~.b.Y.h.t.$.>.W.U.v.Y.!.f.v.A d a.S ",
".Xb.v.c u.l 1.r.s.J.a.v.r.V kX            / lXkXL < 2Xo <X+ pX8X>X> 6XU . U.g.zX0 l.r.$.-.i.>.t.a.9.9.f.!.L.s 9.W.c.B.f.b.u g.!.",
"|.}.XXoXT.7.:.7.7.g.J.g.>.;.pX            ZXxXLXHXAXSX+ wXX pXuXQ > 9X-Xo N J.J ` p.n n V l k F S l 7.Y.Y.L.c.Y.m.b.!.c.$.0 `.2.",
"N..XXX}..XY.-.>.(.OXc.t...s.uX            % R # 1 KXcX; 6X+ pXpXI ; pX' BX  S i H J ;.o.a.1.1.l l p.v.E.J.E.J./.c.W.8.5.u 9 x >.",
"8.~..X}.V.U.f.c %.%X$X(.N.l.tX            < ; X }     ,XtX. pXpX@ X aX.     r v.W.= I.b.%.H.3.-.l 9.f.R.3.J.c.f.^.J.t.3.$.-.1.h.",
"N.Y.8.2.^.H.Y./.T. X=X*X%Xk.;X            ' 1 [ P X X 4XdX. uX>X    aX' nX    a.L.W.M ^..Xf.&.$.-.;.7.x.t.I.f.v.a.n v o.-.-.;.h.",
"$.u.t.:.d 7.H.M.~./.~.~.%X{ ,           o ; xXFX) +   5X,XX 5X:X    fX! BX    J b.s._.vXc.c.9.3.3.3.2.7.3.q.9.$.i.n a.4.a.A o.H.",
">.6.-.<.r.t.1.s f.W.b.4.N.D @           2 xXKXIXAX'   dX>   uX+   X + rXLXLX  O b.b.~.Z G.Y.r.3.g.3.m.!.x.H.8.l.u a.t.f.u.-.v i.",
"g.u.-.l -.3.>.i u.f.l d Q.` o       o X ; NXHXLXgXR o 6X.   uX  I   X L rXSX    K.%.H.d.M J 1.h.'.M.oXv.W.Y.g.F u g.M.h.u.7.3.t.",
"Y.B.f.v.7.-.-.a.c v.y.y.A - = - .   X ' : ( fXgX>X@ X @     9XX ;X      L sX  + C t.g.t.y.{.-.L.b.T.d.M.R.n K.4 k J.h.E.J.Y.s.s.",
"!.T.(.!.9.2.n d <.a l y.&.M G ,.9.6 u = ( 2XxX; '       X   ,XX       P # I.[.i.o r.;.3.b ;.2 6.U.T.B.s g.V D.8 p.u.M.U./.b.W.U.",
"*.(.OX(./.h.>.0.%.r.m.N.u.Q.0.>.n <.A.P.2XDXDX@             I           K /.~.XX~.~.t.3.,.3.<.qX*.b.c.^.K.0 3 l.l H.Y.U.W.U.h.z ",
"i .XX.(.2.Y.u.z y.L.b.$XXXXXE.L.$.:.t.j ( zXrX, * M .         @       # J.].~.}.g c.^.7.&.u l.r.#XI.-.F.w G P.6.y.a.t.L.W.Y.*.v.",
"/.s.m.B.b.(.f.3.X.f.Y.j.XXT.H.t.7.S r.ZXKXPX! + 4 0.          !       # b w.OX=XXX!.W.Y.v.$.5.l.` H I.3 G r.g.t.t.S b d.Y./.J.h.",
"~.N.N.b.^.^.r.r.-.g.E.T.|.+Xs. Xm.f e.] SXPXgXX I.!.        * ' o     } 6.^.^.[.n.x.^.I.6.F.F.* 4 D & G y.g.7.s.t.0 y.c.c.g.I.5 ",
"].[.!.].3 3 5 q G 6.m..X|.XX%XM.m.x.&.{ PXIXI J $XB.!.    . y.j       nX8 N ).K 3 3 t 3 H 4 4 D.F.1.j l J.3.W.Y.m.v.o.6.6.V 0 E.",
"w e 4 t h H.p.i.k p 4 y.v #Xy.1.h F.w.] IXZX! ].K.p.4 &   y r Z       vXD.e.3 6 _._.B ).].F.G '.f.a i R.U.q.W.i H.E.J.w.i.b r.g.",
"H.k F.n R.U.d.X.t.P.w.w.A 3 t G G 5 3 M IX:X_ 4 4 y ).l.N j S p O   . nX,.n f.U.&.I.b.l.!.v.7.>.7.-.t.W.U.>.1.-.E./.>.1.V c t.t.",
"9.5.v <.R.n z o.g.!.!.~.8.!.v.m.B.s.R.D IXQ A e.].i c.L.l.:.I.Q.Z     zXF i.9.x.!.a /.!.(.T.v.u :.>.8.h.U.9.;.>.b.!.U.&.2.;.t.J.",
"U.u.:.a.2.`.r.$.L.W.W.d.2.W.7.B.h.M.U.K LXU N.Y.E.u.H.r.<.l.d Y.l..   D 1.:.a.b.8.f.W.!.}.~.W.7.n t.9.t.U.r.-.1.b.B.'.f.;.o.$.g.",
"R.t.;.r.J.a.9.-.8.&.W.Y.L.b.U.M.b.T.U.G.BX2XJ.`.y.w.1.;.>.S t.v.v.; ; 1Xl a r.f.b.L.f.^.T.~.9.7.X.y.b.8.U.4.c 2.%.8.V.V.XX*.2.g.",
"W.c.2.$.t.r.c 7.L.2.*.b.Y.Y.Y.v.3.L.m.MXbX3XD.v I.o.,.1.>.6.6.>.t.X X 2XH.g.>.z ;.v.u.!.W.z ~.U.J.%.7.2.h.8.R.Y.Q..XX.*XXXXX;.4.",
"U.c.W.u.o.o.g.g.'.b.(.Y.Y.Y.J.$.x l.a xX{ R ).`.'.g.;.h.f.>.7.6.i.+   # g.f.>.u.L.l 3.Y.Y.d.Y.B./.v.7.$.s.T.W.E.&.V.*X=.*Xc.9.r.",
"b.b.J.2.o.J.b.4.R.$.*.b.h.v.J.I.u 9.].D KX0Xf.E.W.U.L.9.I.H.+.,.G X   ) e...:.b.b.1.a.9.B.!.B.s.u.z A >.Y.h.d.~.6 %X=.Z.4./.2.f.",
"H.R.3.1./.[. X%.f.U.b.T.d.Y.v.b 0 $XE.% KX> R.b.U.f.9.&.r.$.r.z A       ; F !.2.T.v.E.J.f.f.v.H.a.,.u c L. X'.c.=.*X&X}.%X.X8.7.",
"z -.f g.b.U./.o.Y.U.M...t.J.-.V w $.G } PX3Xc.L.R.Y.b.t.7.a.P.v.S     .   1 {.v.B.b.b.b.f.t.F 1.k w.F w.l R.J.M.j.X.a p.d A K l.",
",.1.J.h.b.2.L.W.X.W.b.J.H.r.n <.j J.Q.2XPXsXx.f.f.L.2.>.v.L.l.5.l.t - * O * . O L.Y.M.b.s y.6.7.6.w.u w.n l K.^.b.^.K 4 j y e 8 ",
"S n x.d.s.;.b.W.f.U.f.a.A v w.G h l L.K _ = i.>.v.o.-.;.u !.c.n.x.y.5.e.y.$.n.r.b.B.b.b.v.u.n.>.u.6.v n a.v.^.w.4 N G <.$Xv.!.K."
};
